<svg xmlns:xlink="http://www.w3.org/1999/xlink" width="35" xmlns="http://www.w3.org/2000/svg" height="35.875" id="screenshot-579563e5-133c-80eb-8002-ab3dc112d151" viewBox="988.628 1320.821 35 35.875" style="-webkit-print-color-adjust: exact;" fill="none" version="1.1"><g id="shape-579563e5-133c-80eb-8002-ab3dc112d151"><g class="fills" id="fills-579563e5-133c-80eb-8002-ab3dc112d151"><path rx="0" ry="0" d="M1019.878,1320.821L992.378,1320.821C990.307,1320.821,988.628,1322.541,988.628,1324.664L988.628,1352.852C988.628,1354.975,990.307,1356.696,992.378,1356.696L1003.101,1356.696L1003.101,1344.499L998.179,1344.499L998.179,1338.758L1003.101,1338.758L1003.101,1334.383C1003.101,1329.406,1005.992,1326.657,1010.419,1326.657C1012.539,1326.657,1014.756,1327.044,1014.756,1327.044L1014.756,1331.929L1012.313,1331.929C1009.906,1331.929,1009.156,1333.460,1009.156,1335.030L1009.156,1338.758L1014.529,1338.758L1013.670,1344.499L1009.156,1344.499L1009.156,1356.696L1019.878,1356.696C1021.949,1356.696,1023.628,1354.975,1023.628,1352.852L1023.628,1324.664C1023.628,1322.541,1021.949,1320.821,1019.878,1320.821ZZ" style="fill: rgb(255, 255, 255); fill-opacity: 1;"/></g></g></svg>