<svg xmlns:xlink="http://www.w3.org/1999/xlink" width="35" xmlns="http://www.w3.org/2000/svg" height="35.875" id="screenshot-579563e5-133c-80eb-8002-ab3dc112d14f" viewBox="1037.628 1320.821 35 35.875" style="-webkit-print-color-adjust: exact;" fill="none" version="1.1"><g id="shape-579563e5-133c-80eb-8002-ab3dc112d14f"><g class="fills" id="fills-579563e5-133c-80eb-8002-ab3dc112d14f"><path rx="0" ry="0" d="M1055.128,1334.487C1052.827,1334.488,1050.962,1336.400,1050.963,1338.759C1050.963,1341.118,1052.829,1343.030,1055.130,1343.029C1057.432,1343.029,1059.297,1341.117,1059.297,1338.758C1059.295,1336.399,1057.430,1334.488,1055.128,1334.487ZZM1064.871,1331.203C1064.442,1330.090,1063.582,1329.208,1062.496,1328.768C1060.855,1328.104,1056.949,1328.253,1055.128,1328.253C1053.308,1328.253,1049.406,1328.099,1047.760,1328.768C1046.674,1329.208,1045.813,1330.090,1045.385,1331.203C1044.738,1332.885,1044.882,1336.893,1044.882,1338.757C1044.882,1340.621,1044.738,1344.625,1045.388,1346.312C1045.817,1347.426,1046.677,1348.307,1047.763,1348.747C1049.404,1349.411,1053.310,1349.262,1055.131,1349.262C1056.953,1349.262,1060.853,1349.416,1062.499,1348.747C1063.585,1348.307,1064.446,1347.426,1064.874,1346.312C1065.527,1344.630,1065.377,1340.622,1065.377,1338.758C1065.377,1336.894,1065.527,1332.892,1064.871,1331.203ZZM1055.128,1345.324C1051.590,1345.324,1048.722,1342.385,1048.722,1338.758C1048.722,1335.132,1051.590,1332.192,1055.128,1332.192C1058.666,1332.192,1061.535,1335.132,1061.535,1338.758C1061.537,1340.500,1060.862,1342.172,1059.661,1343.404C1058.459,1344.635,1056.828,1345.327,1055.128,1345.324ZZM1061.799,1333.449C1061.194,1333.449,1060.648,1333.076,1060.417,1332.503C1060.185,1331.931,1060.313,1331.271,1060.740,1330.833C1061.168,1330.394,1061.811,1330.263,1062.370,1330.500C1062.929,1330.737,1063.293,1331.296,1063.293,1331.916C1063.295,1332.323,1063.138,1332.713,1062.859,1333.002C1062.579,1333.290,1062.198,1333.452,1061.799,1333.449ZZM1068.878,1320.821L1041.378,1320.821C1039.307,1320.821,1037.628,1322.541,1037.628,1324.664L1037.628,1352.852C1037.628,1354.975,1039.307,1356.696,1041.378,1356.696L1068.878,1356.696C1070.949,1356.696,1072.628,1354.975,1072.628,1352.852L1072.628,1324.664C1072.628,1322.541,1070.949,1320.821,1068.878,1320.821ZZM1067.541,1344.043C1067.440,1346.096,1066.983,1347.914,1065.521,1349.408C1064.060,1350.903,1062.287,1351.381,1060.287,1351.478C1058.224,1351.598,1052.038,1351.598,1049.974,1351.478C1047.972,1351.375,1046.204,1350.906,1044.740,1349.408C1043.276,1347.911,1042.816,1346.092,1042.721,1344.043C1042.604,1341.928,1042.604,1335.586,1042.721,1333.473C1042.821,1331.421,1043.273,1329.602,1044.740,1328.108C1046.207,1326.613,1047.980,1326.141,1049.974,1326.043C1052.038,1325.924,1058.224,1325.924,1060.287,1326.043C1062.289,1326.147,1064.063,1326.616,1065.521,1328.113C1066.980,1329.611,1067.446,1331.430,1067.541,1333.483C1067.657,1335.590,1067.657,1341.926,1067.541,1344.043ZZ" style="fill: rgb(255, 255, 255); fill-opacity: 1;"/></g></g></svg>