<svg xmlns:xlink="http://www.w3.org/1999/xlink" width="147" xmlns="http://www.w3.org/2000/svg" height="36" id="screenshot-579563e5-133c-80eb-8002-ab3dc112852b" viewBox="0 0 147 36" style="-webkit-print-color-adjust: exact;" fill="none" version="1.1"><g id="shape-579563e5-133c-80eb-8002-ab3dc112852b" xml:space="preserve" width="48.5563mm" height="11.811mm" xmlns:xlink="http://www.w3.org/1999/xlink" rx="0" ry="0" style="shape-rendering: geometricprecision; text-rendering: geometricprecision; fill-rule: evenodd; clip-rule: evenodd; fill: rgb(0, 0, 0);"><g id="shape-579563e5-133c-80eb-8002-ab3dc112d153"><defs rx="0" ry="0" style="fill: rgb(255, 255, 255); fill-opacity: 1;"/></g><g id="shape-579563e5-133c-80eb-8002-ab3dc112d154" rx="0" ry="0" style="fill: rgb(0, 0, 0);"><g id="shape-579563e5-133c-80eb-8002-ab3dc112d155"><g class="fills" id="fills-579563e5-133c-80eb-8002-ab3dc112d155"><path class="fil0" rx="0" ry="0" d="M21.531,3.226C21.531,5.097,23.227,6.710,24.991,6.710L25.760,6.710C30.812,6.710,30.850,0.129,25.760,0.129L25.248,0.129C23.481,0.129,21.531,1.595,21.531,3.226ZZ" style="fill: rgb(255, 255, 255); fill-opacity: 1;"/></g></g><g id="shape-579563e5-133c-80eb-8002-ab3dc112d156"><g class="fills" id="fills-579563e5-133c-80eb-8002-ab3dc112d156"><path class="fil0" rx="0" ry="0" d="M114.575,21.161C114.575,22.583,115.206,23.742,116.626,23.742L117.010,23.742C118.359,23.742,119.061,21.994,119.061,20.516L119.061,11.742L125.341,11.742L125.341,28.903L119.061,28.903L119.061,27.097C117.801,27.946,116.939,29.290,114.575,29.290L113.806,29.290C110.542,29.290,108.424,26.335,108.424,22.968L108.295,11.742L114.575,11.742L114.575,21.161ZZM97.017,29.290C91.967,29.290,87.662,25.875,87.662,20.903L87.662,20.258C87.662,17.593,88.598,15.507,89.936,14.161C91.036,13.053,93.632,11.484,95.736,11.484L97.402,11.484C102.567,11.484,106.245,15.247,106.245,20.516C106.245,25.705,102.182,29.290,97.017,29.290ZZM127.007,11.742L128.929,11.742L128.923,6.390L135.081,5.806L135.081,11.742L138.798,11.742L138.798,16.774L135.081,16.774L135.081,22.193C135.081,22.916,135.331,23.871,135.978,23.871L136.110,23.900L137.492,23.750L138.926,28.000C137.434,28.795,136.219,29.290,133.927,29.290L133.671,29.290C131.148,29.290,128.929,26.944,128.929,24.387L128.929,16.774L127.007,16.774L127.007,11.742ZZM147.000,34.710L147.000,0.000L79.075,0.000C78.987,0.157,78.947,0.138,78.947,0.387L78.947,34.710L147.000,34.710ZZ" style="fill: rgb(255, 255, 255); fill-opacity: 1;"/></g></g><g id="shape-579563e5-133c-80eb-8002-ab3dc112d157"><g class="fills" id="fills-579563e5-133c-80eb-8002-ab3dc112d157"><path class="fil0" rx="0" ry="0" d="M108.424,22.968L108.424,11.871L114.444,11.871L114.575,21.161L114.575,11.742L108.296,11.742Z" style="fill: rgb(255, 255, 255); fill-opacity: 1;"/></g></g><g id="shape-579563e5-133c-80eb-8002-ab3dc112d158"><g class="fills" id="fills-579563e5-133c-80eb-8002-ab3dc112d158"><path class="fil0" rx="0" ry="0" d="M97.146,23.742C98.793,23.742,99.965,22.235,99.965,20.516L99.965,19.871C99.965,18.554,98.710,17.032,97.402,17.032L96.377,17.032C95.298,17.032,93.941,18.520,93.941,19.742L93.941,20.645C93.941,22.289,95.188,23.742,96.761,23.742L97.146,23.742ZZ" style="fill: rgb(255, 255, 255); fill-opacity: 1;"/></g></g><g id="shape-579563e5-133c-80eb-8002-ab3dc112d159"><g class="fills" id="fills-579563e5-133c-80eb-8002-ab3dc112d159"><path class="fil0" rx="0" ry="0" d="M0.000,25.807L7.305,25.807L7.305,17.419L17.046,17.419L17.046,11.613L7.177,11.613L7.177,7.226C7.177,6.928,7.266,6.839,7.562,6.839L19.224,6.839L19.224,1.032L0.000,1.032L0.000,25.807ZZ" style="fill: rgb(255, 255, 255); fill-opacity: 1;"/></g></g><g id="shape-579563e5-133c-80eb-8002-ab3dc112d15a"><g class="fills" id="fills-579563e5-133c-80eb-8002-ab3dc112d15a"><path class="fil0" rx="0" ry="0" d="M39.730,10.581C39.642,10.423,39.602,10.443,39.602,10.194L39.602,8.774L32.681,8.774L32.681,25.807L39.730,25.807L39.730,16.516C39.730,14.955,40.943,13.807,42.549,13.807C44.078,13.807,44.984,14.621,44.984,16.129L44.984,25.807L52.033,25.807L52.033,15.613C52.033,11.157,50.145,8.387,45.753,8.387L45.112,8.387C41.964,8.387,41.476,9.403,39.730,10.581ZZ" style="fill: rgb(255, 255, 255); fill-opacity: 1;"/></g></g><g id="shape-579563e5-133c-80eb-8002-ab3dc112d15b"><g class="fills" id="fills-579563e5-133c-80eb-8002-ab3dc112d15b"><path class="fil0" rx="0" ry="0" d="M22.044,25.807L28.964,25.807L28.964,8.774L22.044,8.774Z" style="fill: rgb(255, 255, 255); fill-opacity: 1;"/></g></g><g id="shape-579563e5-133c-80eb-8002-ab3dc112d15c"><g class="fills" id="fills-579563e5-133c-80eb-8002-ab3dc112d15c"><path class="fil0" rx="0" ry="0" d="M61.517,16.903C61.517,15.269,63.159,13.807,64.849,13.807L65.105,13.807C67.025,13.807,68.566,15.383,68.566,17.290C68.566,21.728,61.517,21.932,61.517,17.419L61.517,16.903ZZM68.181,10.323C67.872,10.240,66.787,9.331,66.132,9.031C65.480,8.733,64.384,8.387,63.439,8.387L62.927,8.387C57.911,8.387,54.468,12.230,54.468,17.290C54.468,22.178,58.023,26.064,62.798,26.064L64.465,26.064C66.769,26.064,67.758,24.475,68.566,24.258L68.566,25.807L75.230,25.807L75.230,0.129L68.181,0.129L68.181,10.323ZZ" style="fill: rgb(255, 255, 255); fill-opacity: 1;"/></g></g><g id="shape-579563e5-133c-80eb-8002-ab3dc112d15d"><g class="fills" id="fills-579563e5-133c-80eb-8002-ab3dc112d15d"><path class="fil0" rx="0" ry="0" d="M11.663,28.516L11.150,28.516C11.305,29.187,11.628,29.806,12.432,29.806L13.201,29.806C13.906,29.806,14.427,29.189,14.477,28.551L13.345,28.392L13.201,28.903L12.816,28.903C12.415,28.903,12.453,28.672,12.303,28.387C12.016,28.455,12.009,28.516,11.663,28.516ZZ" style="fill: rgb(255, 255, 255); fill-opacity: 1;"/></g></g><g id="shape-579563e5-133c-80eb-8002-ab3dc112d15e"><g class="fills" id="fills-579563e5-133c-80eb-8002-ab3dc112d15e"><path class="fil0" rx="0" ry="0" d="M71.642,32.129C71.642,32.892,71.500,33.402,70.744,33.419L70.744,34.839L71.513,34.839C73.013,34.839,72.898,32.827,73.179,31.613L73.820,31.613L73.820,34.839L75.358,34.839L75.358,30.322L71.641,30.322L71.642,32.129ZZ" style="fill: rgb(255, 255, 255); fill-opacity: 1;"/></g></g><g id="shape-579563e5-133c-80eb-8002-ab3dc112d15f"><g class="fills" id="fills-579563e5-133c-80eb-8002-ab3dc112d15f"><path class="fil0" rx="0" ry="0" d="M55.622,32.516L55.622,32.645C55.622,33.849,56.456,34.839,57.672,34.839L58.313,34.839C58.978,34.839,59.565,34.586,59.864,34.183L59.082,33.161C59.015,33.197,58.320,33.548,58.313,33.548C57.800,33.548,57.160,33.215,57.160,32.774C57.160,31.943,57.507,31.772,58.187,31.608L58.927,31.974L59.851,30.968C59.565,30.575,58.978,30.322,58.313,30.322L57.672,30.322C56.456,30.322,55.622,31.312,55.622,32.516ZZ" style="fill: rgb(255, 255, 255); fill-opacity: 1;"/></g></g><g id="shape-579563e5-133c-80eb-8002-ab3dc112d160"><g class="fills" id="fills-579563e5-133c-80eb-8002-ab3dc112d160"><path class="fil0" rx="0" ry="0" d="M0.000,34.839L1.666,34.839L1.666,33.290L2.820,33.290L2.820,34.839L4.358,34.839L4.358,30.322L2.820,30.322L2.820,32.000L1.666,32.000L1.666,30.322L0.000,30.322Z" style="fill: rgb(255, 255, 255); fill-opacity: 1;"/></g></g><g id="shape-579563e5-133c-80eb-8002-ab3dc112d161"><g class="fills" id="fills-579563e5-133c-80eb-8002-ab3dc112d161"><path class="fil0" rx="0" ry="0" d="M10.637,34.839L12.118,34.805L13.457,32.645L13.457,34.839L14.995,34.839L14.995,30.322L13.498,30.344L12.175,32.645L12.175,30.322L10.637,30.322Z" style="fill: rgb(255, 255, 255); fill-opacity: 1;"/></g></g><g id="shape-579563e5-133c-80eb-8002-ab3dc112d162"><g class="fills" id="fills-579563e5-133c-80eb-8002-ab3dc112d162"><path class="fil0" rx="0" ry="0" d="M21.531,34.839L23.001,34.799L24.351,32.645L24.351,34.839L25.889,34.839L25.889,30.322L24.383,30.340L23.069,32.645L23.069,30.322L21.531,30.322Z" style="fill: rgb(255, 255, 255); fill-opacity: 1;"/></g></g><g id="shape-579563e5-133c-80eb-8002-ab3dc112d163"><g class="fills" id="fills-579563e5-133c-80eb-8002-ab3dc112d163"><path class="fil0" rx="0" ry="0" d="M28.836,34.839L30.374,34.839L30.374,33.677C30.374,33.332,30.559,33.296,30.751,33.166L31.656,34.839L33.450,34.839C33.278,34.190,32.040,32.662,32.040,32.258C32.040,31.890,33.200,30.698,33.450,30.322L31.588,30.368L30.374,31.871L30.374,30.322L28.836,30.322L28.836,34.839ZZ" style="fill: rgb(255, 255, 255); fill-opacity: 1;"/></g></g><g id="shape-579563e5-133c-80eb-8002-ab3dc112d164"><g class="fills" id="fills-579563e5-133c-80eb-8002-ab3dc112d164"><path class="fil0" rx="0" ry="0" d="M50.495,34.839L51.777,34.839C52.398,34.839,52.778,33.093,53.443,32.645L53.443,34.839L54.981,34.839L54.981,30.322L53.699,30.322C53.171,30.322,52.569,32.379,52.033,32.774L52.033,30.322L50.495,30.322L50.495,34.839ZZ" style="fill: rgb(255, 255, 255); fill-opacity: 1;"/></g></g><g id="shape-579563e5-133c-80eb-8002-ab3dc112d165"><g class="fills" id="fills-579563e5-133c-80eb-8002-ab3dc112d165"><path class="fil0" rx="0" ry="0" d="M60.492,34.839L62.029,34.839L62.029,33.677C62.029,33.388,62.131,33.394,62.286,33.161C62.899,33.574,63.116,34.839,63.696,34.839L65.105,34.839C64.945,34.145,63.696,32.628,63.696,32.258C63.696,31.971,64.873,30.671,65.105,30.322L63.385,30.279L62.029,31.871L62.029,30.322L60.492,30.322L60.492,34.839ZZ" style="fill: rgb(255, 255, 255); fill-opacity: 1;"/></g></g><g id="shape-579563e5-133c-80eb-8002-ab3dc112d166"><g class="fills" id="fills-579563e5-133c-80eb-8002-ab3dc112d166"><path class="fil0" rx="0" ry="0" d="M6.665,32.516C6.665,31.914,6.963,31.613,7.562,31.613C7.688,31.613,8.202,32.108,8.202,32.387L8.202,32.645C8.202,33.166,7.923,33.548,7.434,33.548C6.943,33.548,6.665,33.166,6.665,32.645L6.665,32.516ZZM4.998,32.645C4.998,33.789,5.767,34.839,6.921,34.839L7.305,34.839C7.776,34.839,7.925,34.639,8.202,34.452L8.202,34.839L9.740,34.839L9.740,30.322L8.202,30.322L8.202,30.710C7.689,30.572,7.783,30.322,7.177,30.322L6.665,30.322C5.759,30.322,4.998,31.560,4.998,32.516L4.998,32.645ZZ" style="fill: rgb(255, 255, 255); fill-opacity: 1;"/></g></g><g id="shape-579563e5-133c-80eb-8002-ab3dc112d167"><g class="fills" id="fills-579563e5-133c-80eb-8002-ab3dc112d167"><path class="fil0" rx="0" ry="0" d="M35.372,32.387C35.372,32.076,35.833,31.613,36.141,31.613C36.576,31.613,37.038,32.079,37.038,32.516C37.038,33.101,36.640,33.549,36.013,33.549C35.887,33.549,35.372,33.053,35.372,32.774L35.372,32.387ZZM36.654,34.839C37.693,34.839,38.576,33.766,38.576,32.645L38.576,32.516C38.576,31.396,37.693,30.323,36.654,30.323L35.885,30.323C34.883,30.323,33.834,31.179,33.834,32.129L33.834,33.032C33.834,33.983,34.883,34.839,35.885,34.839L36.654,34.839ZZ" style="fill: rgb(255, 255, 255); fill-opacity: 1;"/></g></g><g id="shape-579563e5-133c-80eb-8002-ab3dc112d168"><g class="fills" id="fills-579563e5-133c-80eb-8002-ab3dc112d168"><path class="fil0" rx="0" ry="0" d="M40.883,31.613L42.549,31.613L42.549,30.322L39.217,30.322L39.217,34.839L40.883,34.839Z" style="fill: rgb(255, 255, 255); fill-opacity: 1;"/></g></g><g id="shape-579563e5-133c-80eb-8002-ab3dc112d169"><g class="fills" id="fills-579563e5-133c-80eb-8002-ab3dc112d169"><path class="fil0" rx="0" ry="0" d="M44.600,32.258C44.600,31.892,45.042,31.613,45.369,31.613C45.695,31.613,46.138,31.892,46.138,32.258L46.138,32.645C46.138,33.166,45.859,33.548,45.369,33.548C45.042,33.548,44.600,33.269,44.600,32.903L44.600,32.258ZZM42.934,32.645C42.934,33.766,43.817,34.839,44.856,34.839L45.625,34.839C46.796,34.839,47.804,33.824,47.804,32.645L47.804,32.516C47.804,31.337,46.796,30.322,45.625,30.322L44.856,30.322C43.817,30.322,42.934,31.396,42.934,32.516L42.934,32.645ZZ" style="fill: rgb(255, 255, 255); fill-opacity: 1;"/></g></g><g id="shape-579563e5-133c-80eb-8002-ab3dc112d16a"><g class="fills" id="fills-579563e5-133c-80eb-8002-ab3dc112d16a"><path class="fil0" rx="0" ry="0" d="M67.028,32.387C67.028,32.076,67.488,31.613,67.797,31.613C68.287,31.613,68.566,31.995,68.566,32.516L68.566,32.903C68.566,33.269,68.123,33.549,67.797,33.549C67.307,33.549,67.028,33.166,67.028,32.645L67.028,32.387ZZM65.490,33.161C65.490,33.953,66.370,34.839,67.156,34.839L67.669,34.839C68.274,34.839,68.181,34.590,68.694,34.452L68.694,34.839L70.104,34.839L70.104,30.323L68.566,30.323L68.566,30.710C68.053,30.572,68.146,30.323,67.541,30.323L67.028,30.323C66.304,30.323,65.490,31.273,65.490,32.000L65.490,33.161ZZ" style="fill: rgb(255, 255, 255); fill-opacity: 1;"/></g></g><g id="shape-579563e5-133c-80eb-8002-ab3dc112d16b"><g class="fills" id="fills-579563e5-133c-80eb-8002-ab3dc112d16b"><path class="fil0" rx="0" ry="0" d="M18.115,31.623L18.712,31.613L18.712,33.548L17.666,33.544L18.115,31.623ZZM15.508,36.000L16.789,36.000L16.789,34.839L19.609,34.839L19.609,36.000L20.890,36.000L20.890,33.548L20.249,33.548L20.249,30.322L16.661,30.322L16.254,33.566L15.508,33.548L15.508,36.000ZZ" style="fill: rgb(255, 255, 255); fill-opacity: 1;"/></g></g></g></g></svg>