<svg xmlns:xlink="http://www.w3.org/1999/xlink" width="35" xmlns="http://www.w3.org/2000/svg" height="35" id="screenshot-579563e5-133c-80eb-8002-ab3dc1128532" viewBox="0 0 35 35" style="-webkit-print-color-adjust: exact;" fill="none" version="1.1"><g id="shape-579563e5-133c-80eb-8002-ab3dc1128532" xml:space="preserve" width="49.6872mm" height="49.6872mm" xmlns:xlink="http://www.w3.org/1999/xlink" rx="0" ry="0" style="shape-rendering: geometricprecision; text-rendering: geometricprecision; fill-rule: evenodd; clip-rule: evenodd; fill: rgb(0, 0, 0);"><g id="shape-579563e5-133c-80eb-8002-ab3dc1128536"><defs rx="0" ry="0" style="fill: rgb(255, 255, 255); fill-opacity: 1;"/></g><g id="shape-579563e5-133c-80eb-8002-ab3dc1128537" rx="0" ry="0" style="fill: rgb(0, 0, 0);"><g id="shape-579563e5-133c-80eb-8002-ab3dc1128538"><g class="fills" id="fills-579563e5-133c-80eb-8002-ab3dc1128538"><path class="fil0" rx="0" ry="0" d="M25.375,28.000L25.375,28.000ZC24.637,28.000,20.982,25.443,20.285,24.969C19.469,24.414,18.726,23.879,17.871,23.359C17.242,22.976,15.820,22.292,15.820,21.385L15.820,21.175C15.820,20.324,17.157,19.368,17.649,18.874C18.349,18.169,19.029,17.494,19.731,16.791C20.215,16.307,23.905,12.942,23.905,12.635L23.905,12.460C23.905,12.291,23.794,12.180,23.625,12.180C23.353,12.180,20.927,13.826,20.552,14.077C20.081,14.391,19.544,14.812,19.074,15.084C18.832,15.224,18.590,15.421,18.340,15.575C18.204,15.659,17.711,15.990,17.596,16.091C17.248,16.397,16.539,16.816,16.120,17.100C15.620,17.440,15.156,17.782,14.651,18.116C13.881,18.624,12.470,19.740,11.305,19.740L11.235,19.740C9.877,19.740,8.797,19.287,7.727,19.013C7.096,18.851,4.900,18.209,4.900,17.605L4.900,17.220C4.900,16.267,9.416,14.634,10.441,14.221C12.465,13.403,14.441,12.502,16.450,11.690C18.465,10.875,20.449,10.008,22.500,9.200C23.553,8.785,27.836,7.000,28.875,7.000L28.945,7.000C29.572,7.000,30.100,7.347,30.100,7.945C30.100,8.331,30.006,8.939,29.939,9.324C29.861,9.770,29.836,10.263,29.784,10.709C29.680,11.589,29.517,12.583,29.436,13.476C29.354,14.386,29.195,15.290,29.086,16.206C28.981,17.091,28.855,18.090,28.709,18.944C28.399,20.754,28.150,22.510,27.851,24.281C27.759,24.826,27.495,26.392,27.311,26.821C27.036,27.466,26.288,28.000,25.375,28.000ZZM0.000,3.360L0.000,31.430C0.049,31.508,0.065,32.025,0.120,32.185C0.207,32.440,0.269,32.612,0.364,32.851C0.513,33.224,0.848,33.625,1.111,33.889C1.375,34.152,1.776,34.487,2.149,34.636C2.380,34.728,2.548,34.783,2.789,34.871C2.949,34.929,3.503,34.958,3.570,35.000L31.640,35.000C31.716,34.952,32.181,34.888,32.325,34.845C32.504,34.792,32.764,34.683,32.923,34.603C33.312,34.409,33.599,34.179,33.889,33.889C34.204,33.574,34.391,33.347,34.603,32.923C34.708,32.714,34.768,32.564,34.847,32.327C34.896,32.181,34.950,31.719,35.000,31.640L35.000,3.360C34.968,3.309,34.889,2.800,34.847,2.673C34.768,2.436,34.708,2.285,34.603,2.077C34.408,1.687,34.197,1.384,33.906,1.094C33.616,0.803,33.313,0.592,32.923,0.397C32.715,0.292,32.564,0.232,32.327,0.153C32.200,0.111,31.691,0.032,31.640,0.000L3.360,0.000C3.281,0.050,2.819,0.104,2.673,0.153C2.436,0.232,2.286,0.292,2.077,0.397C1.653,0.609,1.426,0.796,1.111,1.111C0.821,1.401,0.591,1.688,0.397,2.077C0.307,2.257,0.222,2.474,0.155,2.675C0.091,2.864,0.087,3.223,0.000,3.360ZZ" style="fill: rgb(255, 255, 255); fill-opacity: 1;"/></g></g></g></g></svg>