<svg fill="none" width="159" xmlns="http://www.w3.org/2000/svg" style="-webkit-print-color-adjust:exact" viewBox="938 444 159 39" height="39">
  <g style="fill:#000">
    <g class="fills">
      <path class="fil0" fill="#55BC7D" d="M938.025 471.884h7.826v-9.042h10.591v-6.356h-10.591v-5.07h12.93v-6.394h-20.756v26.862Zm27.647-20.62c2.552 0 4.338-1.551 4.338-3.67 0-2.043-1.786-3.594-4.338-3.594s-4.381 1.589-4.381 3.594c0 2.081 1.829 3.67 4.381 3.67Zm-3.871 20.62h7.614v-18.539h-7.614v18.539Zm11.527 0h7.613v-9.307c0-2.535 1.191-3.632 3.02-3.632 1.871 0 2.722.719 2.722 3.367v9.572h7.613v-11.199c0-6.015-3.189-7.718-7.4-7.718-2.254 0-4.338.757-5.87 2.346h-.085v-1.968h-7.613v18.539Zm33.261.385c2.381 0 4.21-.688 5.486-2.087h.085v1.702h7.231v-27.846h-7.613v11.123l-.085.038c-1.447-1.475-3.446-2.232-5.572-2.232-5.232 0-9.23 3.935-9.23 9.648 0 5.713 3.956 9.654 9.698 9.654Zm1.658-5.908c-2.126 0-3.7-1.476-3.7-3.746 0-2.195 1.574-3.708 3.7-3.708 2.212 0 3.828 1.513 3.828 3.708 0 2.27-1.616 3.746-3.828 3.746Z"/>
    </g>
    <g class="fills">
      <path class="fil1" fill="#33A1C9" d="M1023.24 444.082H1097v37.661h-73.76Z"/>
    </g>
    <g class="fills">
      <path class="fil2" fill="#fff" d="M1042.865 475.628c5.896 0 10.064-3.941 10.064-9.654s-4.168-9.648-10.064-9.648c-5.97 0-10.101 3.935-10.101 9.648 0 5.713 4.131 9.654 10.101 9.654Zm0-5.946c-1.915 0-3.342-1.552-3.342-3.708 0-2.157 1.39-3.67 3.342-3.67 1.953 0 3.305 1.513 3.305 3.67 0 2.156-1.427 3.708-3.305 3.708Zm18.813 5.946c1.99 0 3.755-.801 5.032-2.39l.075.038v1.967h6.721v-18.539h-6.721v9.308c0 2.535-1.089 3.67-2.516 3.67-1.69 0-2.403-1.098-2.403-3.746v-9.232h-6.684v10.859c0 6.016 2.741 8.065 6.496 8.065Zm21.253 0c2.667 0 4.018-.574 5.408-1.368l-1.653-4.692a4.385 4.385 0 0 1-1.351.265c-1.089 0-1.202-.984-1.202-1.854v-5.902h3.98v-5.373h-3.98v-6.507l-6.722.681v5.826h-1.99v5.373h1.99v7.34c0 4.237 2.404 6.211 5.52 6.211Z"/>
    </g>
    <g class="fills">
      <path class="fil0" fill="#55BC7D" d="M938 481.75h1.763v-1.657h1.231v1.657h1.763v-4.891h-1.763v1.817h-1.231v-1.817H938v4.891Zm7.642.102c.532 0 .936-.182 1.231-.551l.02.01v.439h1.674v-4.891h-1.763v.479h-.02a1.666 1.666 0 0 0-1.25-.579c-1.202 0-2.138 1.038-2.138 2.545 0 1.508.926 2.548 2.246 2.548Zm.394-1.559c-.502 0-.857-.389-.857-.989 0-.579.355-.978.857-.978.463 0 .847.399.847.978 0 .6-.384.989-.847.989Zm5.84-3.913c1.181 0 1.673-.57 1.89-1.438l-1.349-.22c-.089.449-.246.649-.532.649-.285 0-.443-.2-.532-.649l-1.349.22c.217.869.68 1.438 1.872 1.438Zm-2.463 5.37h1.704l1.389-2.455.019.009v2.446h1.724v-4.891h-1.675l-1.417 2.675-.02-.01v-2.665h-1.724v4.891Zm11.246-1.457h-.718v-3.434h-3.999c0 .988 0 1.697-.148 2.376a5.34 5.34 0 0 1-.364 1.058h-.669l-.01 2.707h1.438l.049-1.25h2.875l.109 1.25h1.437v-2.707Zm-3.555 0a5.86 5.86 0 0 0 .207-.589c.119-.439.178-.909.217-1.448h.709v2.037h-1.133Zm4.077 1.457h1.704l1.389-2.455.019.009v2.446h1.724v-4.891h-1.674l-1.418 2.675-.02-.01v-2.665h-1.724v4.891Zm7.957 0h1.724v-1.377l.355-.45 1.093 1.827h1.959l-1.704-2.825 1.616-2.066h-2.019l-1.28 1.757h-.02v-1.757h-1.724v4.891Zm7.977.102c1.546 0 2.639-1.04 2.639-2.548 0-1.507-1.093-2.545-2.639-2.545-1.565 0-2.649 1.038-2.649 2.545 0 1.508 1.084 2.548 2.649 2.548Zm0-1.569c-.502 0-.876-.409-.876-.979 0-.569.364-.968.876-.968s.867.399.867.968c0 .57-.374.979-.867.979Zm3.299 1.467h1.763v-3.474h1.851v-1.417h-3.614v4.891Zm6.647.102c1.546 0 2.64-1.04 2.64-2.548 0-1.507-1.094-2.545-2.64-2.545-1.566 0-2.649 1.038-2.649 2.545 0 1.508 1.083 2.548 2.649 2.548Zm0-1.569c-.502 0-.876-.409-.876-.979 0-.569.364-.968.876-.968s.867.399.867.968c0 .57-.374.979-.867.979Zm5.554 1.467h1.704l1.388-2.455.02.009v2.446h1.724v-4.891h-1.675l-1.418 2.675-.019-.01v-2.665h-1.724v4.891Zm8.046.102c.995 0 1.743-.321 2.186-.821l-1.034-1.157c-.286.279-.542.399-.935.399-.572 0-.995-.38-.995-.959 0-.588.413-.968.985-.968.266 0 .62.12.827.399l1.113-1.168c-.552-.609-1.369-.808-2.108-.808-1.566 0-2.59 1.018-2.59 2.556 0 1.507 1.074 2.527 2.551 2.527Zm2.747-.102h1.724v-1.377l.354-.45 1.094 1.827h1.959l-1.704-2.825 1.615-2.066h-2.018l-1.28 1.757h-.02v-1.757h-1.724v4.891Zm7.554.102c.531 0 .935-.181 1.231-.551l.019.01v.439h1.675v-4.891h-1.763v.479h-.02a1.666 1.666 0 0 0-1.251-.579c-1.201 0-2.137 1.038-2.137 2.545 0 1.508.926 2.548 2.246 2.548Zm.394-1.559c-.503 0-.857-.389-.857-.989 0-.578.354-.978.857-.978.463 0 .847.4.847.978 0 .6-.384.989-.847.989Zm4.175-3.434c-.01.918-.039 1.857-.158 2.506-.098.539-.295.888-.65.888a.844.844 0 0 1-.256-.04l-.049 1.507c.177.072.443.102.611.102 1.122 0 1.615-.581 1.861-1.619.128-.529.177-1.178.226-1.927h.65v3.474h1.763v-4.891h-3.998Z"/>
    </g>
  </g>
</svg>
