<?xml version="1.0" encoding="UTF-8"?>
<!DOCTYPE svg PUBLIC "-//W3C//DTD SVG 1.1//EN" "http://www.w3.org/Graphics/SVG/1.1/DTD/svg11.dtd">
<!-- Creator: CorelDRAW -->
<svg xmlns="http://www.w3.org/2000/svg" xml:space="preserve" width="49.3913mm" height="56.4472mm" style="shape-rendering:geometricPrecision; text-rendering:geometricPrecision; image-rendering:optimizeQuality; fill-rule:evenodd; clip-rule:evenodd"
viewBox="0 0 40899 46741.7"
 xmlns:xlink="http://www.w3.org/1999/xlink">
 <defs>
  <style type="text/css">
   <![CDATA[
    .fil0 {fill:#949494}
   ]]>
  </style>
 </defs>
 <g id="Слой_x0020_1">
  <metadata id="CorelCorpID_0Corel-Layer"/>
  <path class="fil0" d="M8910.09 27460.7l0 1022.49c0,1629.87 584.279,2706.68 584.279,3651.74 0,734.324 -726.292,1460.62 -1460.7,1460.62l-146.07 0c-1303.7,0 -1898.82,-2815.82 -1898.82,-4089.87l0 -1898.91c0,-2891.59 2054.17,-11539.3 4235.94,-11539.3 734.406,0 1460.7,726.292 1460.7,1460.7 0,270.61 -1498.71,3815.04 -1736.28,4544.64 -411.297,1262.63 -1039.05,3810.24 -1039.05,5387.94zm17382.1 -12854c0,-820.525 640.09,-1460.62 1460.62,-1460.62l146.07 0c2356.58,0 5550.65,11436.8 5550.65,15191l0 730.349c0,1820.16 -272.101,4528.08 -2044.98,4528.08 -480.854,0 -1360.5,-882.96 -1342.78,-1173.03l466.363 -3355.05 0 -1022.49c0,-2364.03 -889.502,-5373.61 -1514.6,-7249.5 -335.613,-1007.17 -2721.34,-6036.97 -2721.34,-6188.76zm-8179.83 14314.7l0 584.279c0,2278.08 1817.67,7011.27 -438.209,7011.27 -1781.82,0 -2337.12,-3553.12 -2337.12,-5404.5l0 -2921.4c0,-3610.59 897.203,-6906.02 1516.92,-10022.4 368.487,-1852.62 1848.98,-7943.91 3595.44,-7943.91 747.655,0 1460.7,768.191 1460.7,1460.7 0,732.668 -2091.76,6406.04 -2426.88,8089.98 -586.681,2948.31 -1370.85,5659.79 -1370.85,9146.01zm-18112.4 -2483.1c0,3964.75 1826.62,7455.19 3834,9458.1 2937.79,2931.17 4365.86,3189.94 8143.56,5002.56 -97.8767,1176.34 -1022.49,2446.42 -1022.49,3505.68l0 146.07c0,1129.06 847.354,2190.96 1898.91,2190.96l292.14 0c2453.21,0 2380.34,-2937.79 3213.45,-4674.15l1895.26 179.689 3.64346 2157.43c0,1318.19 909.458,2337.03 2190.96,2337.03 1281.59,0 2191.05,-1018.85 2191.05,-2337.03l0 -2191.05 1896.42 -169.09c835.595,1759.38 762.726,4697.17 3215.94,4697.17l292.14 0c1051.55,0 1898.91,-1061.9 1898.91,-2190.96l0 -146.07c0,-1059.25 -924.612,-2329.33 -1022.49,-3505.68 3873.91,-1858.75 5200.71,-2076.69 8216.18,-5076.01 1964.32,-1953.89 3761.38,-5504.78 3761.38,-9384.65l0 -584.279c0,-6837.71 -4359.16,-10750.6 -8139.75,-13916.5 -2130.02,-1783.72 -4072.48,-3118.72 -5736.72,-5364.5 -878.737,-1185.78 -1341.29,-2140.12 -1752.75,-3797.81 -385.71,-1553.85 -645.059,-2775.24 -2629.26,-2775.24 -1051.8,0 -1369.94,2044.89 -2191.05,2044.89 -954.588,0 -874.928,-2044.89 -2483.1,-2044.89 -1754.82,0 -1986.68,1751.35 -2363.7,3186.87 -351.097,1336.49 -1084.26,2542.39 -1847.98,3556.52 -1511.87,2007.47 -3713.52,3694.89 -5694.82,5260.33 -3740.43,2955.26 -8059.84,7257.7 -8059.84,13850.3l0 584.279z"/>
 </g>
</svg>
