<?xml version="1.0" encoding="UTF-8"?>
<!DOCTYPE svg PUBLIC "-//W3C//DTD SVG 1.1//EN" "http://www.w3.org/Graphics/SVG/1.1/DTD/svg11.dtd">
<!-- Creator: CorelDRAW -->
<svg xmlns="http://www.w3.org/2000/svg" xml:space="preserve" width="56.4474mm" height="56.4473mm" style="shape-rendering:geometricPrecision; text-rendering:geometricPrecision; image-rendering:optimizeQuality; fill-rule:evenodd; clip-rule:evenodd"
viewBox="0 0 92010.1 92009.9"
 xmlns:xlink="http://www.w3.org/1999/xlink">
 <defs>
  <style type="text/css">
   <![CDATA[
    .fil0 {fill:#949494}
   ]]>
  </style>
 </defs>
 <g id="Слой_x0020_1">
  <metadata id="CorelCorpID_0Corel-Layer"/>
  <path class="fil0" d="M20127.3 4025.32c0,4108.78 2001.49,9378.45 4313.83,10931.5l4024.51 -580.448c2152.11,-355.343 7576.31,638.151 9500.21,851.031 2174.44,240.59 7211.84,2599.38 8039.23,2599.38 843.858,0 5854.69,-2365.15 8040.21,-2598.41 3275.35,-349.312 6070.17,-852.009 10074.3,-852.009 1586.49,0 2036.05,575.069 4025.32,575.069 592.184,-2217.8 2909.58,-3471.12 3424.17,-8077.05 420.707,-3764.36 -160.067,-6874.42 -4286.77,-6874.42l-2300.11 0c-5288.26,0 -10051.5,1292.93 -12727.8,3949.04 -2341.52,2324.07 -5961.78,6270.5 -5961.78,10714.9l0 862.604 -575.069 0 0 -862.604c0,-7836.29 -8853.59,-14663.9 -17539.4,-14663.9l-3450.25 0c-2431.98,0 -4600.55,1765.79 -4600.55,4025.32z"/>
  <path class="fil0" d="M52330.8 21564.8c1145.57,2180.31 3427.11,3201.35 4941.88,5121.67 1426.59,1808.34 3068.18,3797.28 4166.97,5896.58 2247.3,4293.95 4405.11,9312.76 4405.11,15722.1 0,840.272 -1433.11,2012.74 -2300.28,2012.74 -4016.68,0 -3713.17,-7080.46 -5135.52,-10678.7 -1494.56,-3780.98 -3485.79,-7021.61 -6002.04,-9812.2 -4251.08,-4714.82 -12777,-9699.89 -21641,-9699.89 -17961,0 -30765.9,13494.6 -30765.9,31628.5 0,11077.1 10479.9,21044.5 17079.1,26050.6 4213.91,3196.46 22643.3,14203.8 28638.4,14203.8 6823.57,0 24635.5,-10731.2 29213.4,-14203.8 6595.36,-5003 17079.1,-14984.2 17079.1,-26050.6 0,-9367.86 -3408.69,-17393.7 -8120.24,-22070.7 -4218.8,-4187.83 -12226.9,-9557.75 -20345.4,-9557.75l-1725.21 0 -9488.48 1437.67z"/>
 </g>
</svg>
