<?xml version="1.0" encoding="UTF-8"?>
<!DOCTYPE svg PUBLIC "-//W3C//DTD SVG 1.1//EN" "http://www.w3.org/Graphics/SVG/1.1/DTD/svg11.dtd">
<!-- Creator: CorelDRAW -->
<svg xmlns="http://www.w3.org/2000/svg" xml:space="preserve" width="56.4473mm" height="56.4473mm" style="shape-rendering:geometricPrecision; text-rendering:geometricPrecision; image-rendering:optimizeQuality; fill-rule:evenodd; clip-rule:evenodd"
viewBox="0 0 199057 199057"
 xmlns:xlink="http://www.w3.org/1999/xlink">
 <defs>
  <style type="text/css">
   <![CDATA[
    .fil0 {fill:#949494}
   ]]>
  </style>
 </defs>
 <g id="Слой_x0020_1">
  <metadata id="CorelCorpID_0Corel-Layer"/>
  <path class="fil0" d="M75268.5 174174l-622.059 0c-3494.68,0 -6220.59,-2725.92 -6220.59,-6220.24 0,-7630.45 10369.8,-6198.02 16915.5,-7966.52 7441.09,-2010.76 10867,-4577.64 15585.7,-9296.33 4714.81,-4715.17 7289.1,-8148.84 9296.33,-15586 1778.37,-6589.1 387.2,-16915.5 7966.52,-16915.5 3494.68,0 6220.59,2725.92 6220.59,6220.59l0 622.059c0,26968.2 -22174.1,49142 -49142,49142zm103260 -139962c0,-2762.94 20527.6,-16642.9 20527.6,-24882 0,-5099.19 -4231.7,-9330.54 -9330.89,-9330.54 -8238.76,0 -22118.7,20527.6 -24882,20527.6 -259.897,0 -10250.9,-4832.6 -13565.1,-5718.43 -5067.46,-1354.5 -10149.4,-2368.34 -16915.5,-2368.34 -17842.2,0 -30035.9,12536.8 -40681.4,20279.3 -6169.46,4487.36 -12068.8,7766.93 -18661.4,11819.1 -7052.47,4334.31 -14498.8,5319.95 -22155,8325.51 -19131.5,7510.56 -23261.6,11028.2 -36221.6,24739.6 -7981.33,8444.35 -16643.6,28004 -16643.6,44317.5l0 4976.47c0,37245.3 34538,72158.2 71536.1,72158.2 23839.3,0 40409.2,-7730.6 53039.4,-19118.8 6041.45,-5447.6 11841.3,-12726.5 15808.9,-20270.2 4673.2,-8884.8 6093.29,-16703.2 9895.12,-26183.6 7746.47,-19317.3 17782.6,-28541.7 28124.9,-44032.9 3508.08,-5254.71 9295.63,-18498.9 8167.88,-27823.4 -760.647,-6288.3 -1077.67,-9636.98 -2687.48,-15353.7 -872.435,-3099.01 -5355.92,-11234.8 -5355.92,-12061.4z"/>
 </g>
</svg>
