<?xml version="1.0" standalone="no"?>
<!DOCTYPE svg PUBLIC "-//W3C//DTD SVG 20010904//EN"
 "http://www.w3.org/TR/2001/REC-SVG-20010904/DTD/svg10.dtd">
<svg version="1.0" xmlns="http://www.w3.org/2000/svg"
 width="856.000000pt" height="856.000000pt" viewBox="0 0 856.000000 856.000000"
 preserveAspectRatio="xMidYMid meet">
<metadata>
Created by potrace 1.14, written by Peter Selinger 2001-2017
</metadata>
<g transform="translate(0.000000,856.000000) scale(0.100000,-0.100000)"
fill="#000000" stroke="none">
<path d="M4162 8361 c-61 -23 -136 -76 -172 -121 -14 -18 -31 -38 -38 -46 -7
-8 -10 -14 -6 -14 4 0 0 -8 -8 -17 -13 -16 -51 -89 -53 -103 0 -3 -6 -21 -13
-40 -12 -38 -24 -94 -26 -122 0 -10 -3 -18 -6 -18 -3 0 -7 -179 -7 -397 -2
-511 -4 -586 -13 -630 -15 -65 -32 -63 -119 19 -75 71 -153 133 -206 164 -70
41 -191 88 -260 99 -101 18 -89 23 -149 -62 -90 -126 -100 -161 -101 -338 0
-195 9 -277 50 -425 39 -142 73 -227 168 -415 143 -285 191 -388 202 -435 2
-8 11 -43 20 -77 23 -89 25 -99 30 -182 l5 -73 -66 6 c-37 4 -70 9 -75 11 -4
3 -20 7 -36 9 -15 3 -37 7 -48 9 -194 47 -380 65 -470 44 -70 -16 -128 -75
-145 -147 -13 -53 -17 -370 -6 -407 3 -10 8 -34 11 -53 3 -19 13 -55 21 -80 9
-25 17 -52 19 -61 11 -54 149 -287 214 -359 17 -19 31 -38 31 -42 0 -4 19 -27
43 -51 23 -25 63 -67 88 -93 67 -71 185 -176 254 -227 146 -107 233 -195 269
-272 29 -61 30 -126 4 -182 -40 -84 -107 -140 -382 -317 -104 -67 -180 -141
-196 -192 -8 -24 -10 -81 -7 -172 6 -149 6 -149 30 -206 9 -21 17 -43 17 -48
0 -11 121 -136 148 -152 10 -6 39 -22 63 -35 24 -13 46 -27 49 -30 3 -4 25
-17 50 -29 49 -24 156 -81 180 -97 8 -5 17 -10 20 -10 5 -1 92 -57 100 -65 3
-3 23 -18 44 -34 74 -55 206 -199 206 -225 0 -6 3 -11 8 -11 4 0 13 -15 21
-32 8 -18 17 -35 20 -38 12 -10 31 -50 31 -64 0 -8 3 -16 8 -18 17 -7 85 -252
96 -348 3 -19 5 -35 6 -35 2 0 9 -89 14 -203 5 -77 3 -102 -7 -102 -45 0 -338
141 -358 172 -3 5 -10 10 -15 10 -12 1 -98 60 -102 70 -2 4 -10 8 -18 8 -8 0
-14 5 -14 10 0 6 -6 10 -14 10 -8 0 -16 3 -18 8 -1 4 -50 45 -108 92 -58 46
-115 94 -128 105 -63 55 -466 459 -522 524 -36 41 -76 86 -90 101 -14 14 -41
46 -61 71 -20 24 -45 54 -55 66 -11 11 -35 40 -53 63 -19 24 -40 48 -45 54 -6
6 -25 29 -42 51 -17 22 -73 94 -125 161 -52 66 -102 132 -112 145 -87 120
-112 155 -117 159 -6 6 -22 30 -115 165 -38 55 -72 102 -77 103 -4 2 -8 8 -8
13 0 5 -36 63 -80 129 -44 66 -80 124 -80 129 0 5 -4 11 -8 13 -4 1 -54 82
-111 178 -58 96 -112 187 -123 202 -10 15 -18 31 -18 36 0 4 -13 29 -30 55
-16 26 -26 47 -22 47 4 0 2 4 -4 8 -13 9 -188 364 -239 486 -48 113 -92 236
-111 306 -8 30 -19 66 -24 80 -5 14 -16 63 -25 110 -15 89 -18 103 -35 185 -6
28 -12 61 -14 75 -2 14 -9 49 -15 79 -6 29 -11 59 -11 66 0 18 28 27 49 15 20
-10 65 -97 77 -145 4 -16 9 -34 13 -40 3 -5 6 -14 7 -20 1 -5 12 -44 25 -85
12 -41 23 -77 24 -80 3 -10 23 -56 51 -115 15 -33 28 -62 28 -65 19 -74 578
-1150 692 -1332 13 -21 24 -40 24 -42 0 -4 228 -386 295 -494 130 -211 345
-517 412 -589 12 -12 20 -23 18 -23 -9 0 39 -53 130 -144 123 -123 144 -139
135 -101 -9 38 -33 112 -59 185 -42 114 -40 109 -42 118 -1 4 -5 17 -10 30 -5
13 -11 36 -14 53 -3 16 -8 44 -11 62 -3 17 -7 43 -10 57 -6 39 -6 302 0 330 3
13 8 42 11 65 11 71 83 296 130 400 7 17 23 59 35 95 11 36 24 72 27 80 8 21
10 26 28 100 22 90 26 120 27 202 3 233 -106 263 -323 87 -40 -33 -140 -126
-221 -206 -139 -138 -147 -145 -142 -112 5 40 12 96 18 160 3 25 7 59 10 75 3
16 8 56 11 89 4 33 9 74 11 90 3 17 7 50 10 75 3 25 6 56 9 70 2 14 7 57 11
95 3 39 8 79 11 90 2 11 6 40 9 65 2 25 7 56 9 70 2 14 7 52 10 85 3 33 9 78
12 100 2 22 7 54 9 70 2 17 8 70 15 119 6 50 8 110 5 134 -6 43 -36 142 -46
152 -3 3 -11 16 -18 30 -97 200 -278 173 -417 -62 -65 -108 -89 -142 -130
-181 -41 -38 -98 -71 -125 -72 -17 0 -22 43 -7 63 6 8 5 12 -2 12 -7 0 -10 3
-8 8 3 4 8 50 11 102 7 104 11 134 31 228 11 52 14 65 20 82 3 10 8 28 10 39
2 12 15 59 28 104 14 45 27 93 30 107 3 14 8 36 11 50 22 93 27 304 9 383 -22
100 -82 142 -178 124 -27 -5 -52 -12 -55 -15 -3 -4 -19 -12 -36 -18 -17 -6
-99 -54 -182 -108 -83 -53 -157 -96 -163 -96 -8 0 -9 16 -4 53 13 99 18 192
17 302 -1 100 -6 190 -12 190 -1 0 -3 8 -5 18 -8 45 -72 97 -117 97 -8 0 -18
3 -22 7 -3 4 -12 8 -19 9 -7 1 -38 7 -69 13 -69 12 -199 7 -259 -10 -161 -47
-272 -173 -308 -350 -7 -30 -11 -68 -11 -85 1 -16 0 -115 -1 -219 l-1 -191
-132 -1 c-72 -1 -150 -7 -173 -14 -51 -14 -98 -58 -114 -107 -13 -38 -16 -137
-6 -182 16 -70 39 -146 48 -154 5 -6 9 -16 9 -24 0 -18 102 -226 113 -230 4
-2 7 -8 7 -13 0 -10 94 -153 114 -175 6 -7 63 -65 126 -131 120 -125 206 -223
195 -223 -3 0 1 -10 9 -22 20 -29 20 -54 0 -62 -23 -9 -93 -7 -155 4 -30 5
-67 12 -84 15 -16 2 -41 7 -55 10 -45 9 -149 22 -227 29 -48 4 -49 3 -89 -74
-50 -95 -56 -121 -60 -241 -4 -125 8 -193 48 -270 26 -52 117 -145 179 -185
51 -32 199 -106 309 -154 113 -49 225 -110 268 -145 59 -47 144 -145 127 -145
-3 0 2 -14 11 -31 l16 -31 -54 6 c-29 4 -73 9 -98 12 -25 3 -63 9 -85 13 -66
12 -207 5 -245 -11 -90 -39 -107 -80 -105 -253 1 -174 28 -257 121 -386 109
-151 378 -328 664 -438 47 -18 94 -37 105 -42 31 -14 239 -83 355 -119 58 -17
119 -36 135 -42 17 -5 64 -18 105 -29 41 -11 81 -22 88 -24 7 -2 14 -5 17 -5
3 0 21 -7 41 -15 20 -8 45 -15 55 -15 11 0 27 -4 37 -10 9 -5 64 -23 122 -41
167 -50 399 -141 588 -230 57 -27 105 -49 107 -49 4 0 133 -73 180 -101 110
-67 395 -263 470 -324 76 -62 281 -255 270 -255 -2 0 11 -15 28 -33 34 -35
112 -125 167 -192 59 -71 169 -187 207 -219 22 -18 23 -18 60 10 53 39 114 98
437 419 314 311 362 357 433 406 26 19 50 36 53 39 3 3 28 20 55 38 28 17 55
35 60 39 23 19 187 113 196 113 5 0 9 4 9 9 0 5 14 12 30 16 17 4 30 10 30 13
0 4 20 15 45 25 25 11 45 23 45 28 0 5 6 9 14 9 7 0 57 21 112 46 94 44 131
60 146 63 4 1 44 17 88 36 78 34 508 180 552 189 13 2 35 9 51 15 15 6 38 13
50 15 12 2 41 11 65 20 23 8 45 15 47 15 3 0 38 11 78 23 39 12 75 23 80 24 4
1 9 3 12 4 3 1 10 4 15 5 6 1 12 4 15 5 3 1 8 3 13 4 4 1 30 9 57 19 28 9 53
17 58 17 4 0 21 7 37 15 17 9 30 13 30 9 0 -4 6 -2 13 3 6 6 30 16 52 23 22 7
45 15 50 19 6 3 12 6 15 7 3 0 18 6 33 12 16 7 30 12 33 12 2 0 50 21 106 46
123 55 292 150 368 208 67 50 180 160 180 175 0 6 5 11 10 11 6 0 10 7 10 15
0 8 4 15 9 15 5 0 18 21 29 48 72 170 62 319 -36 497 -38 69 -39 70 -78 69
-44 -2 -140 -12 -175 -19 -13 -3 -46 -8 -74 -11 -27 -3 -59 -7 -70 -9 -87 -13
-125 -16 -125 -9 0 5 13 32 29 59 32 56 103 122 187 172 56 34 78 45 344 178
85 42 158 81 161 87 3 5 10 10 15 10 48 2 236 194 226 231 -1 4 2 7 6 7 18 0
35 107 28 175 -9 94 -66 251 -99 276 -5 3 -7 8 -6 10 4 5 -33 62 -45 71 -6 4
-16 2 -23 -4 -7 -6 -13 -8 -13 -5 0 3 -21 0 -47 -7 -97 -28 -434 -108 -438
-105 -10 10 19 113 50 174 42 88 87 139 282 326 156 150 240 273 258 378 3 19
8 38 11 42 7 12 18 224 17 331 -3 207 -74 236 -321 131 -46 -19 -85 -33 -87
-31 -2 2 -5 110 -5 240 -1 263 -8 299 -71 419 -42 80 -148 188 -214 219 -46
22 -62 24 -195 23 -185 -1 -211 -7 -264 -59 -42 -43 -84 -136 -92 -203 -1 -14
-5 -53 -9 -86 -4 -33 -7 -122 -8 -197 0 -76 -3 -138 -6 -138 -3 0 -19 12 -36
26 -72 64 -229 175 -287 203 -119 58 -193 46 -231 -38 -18 -40 -21 -66 -21
-196 -1 -152 7 -238 26 -310 5 -22 12 -50 14 -63 3 -12 16 -64 30 -115 14 -50
27 -101 30 -112 6 -33 12 -60 14 -60 1 0 3 -7 5 -15 2 -8 6 -28 10 -45 3 -16
8 -74 10 -127 3 -87 -4 -135 -30 -207 -6 -15 -74 55 -75 77 0 6 -4 12 -10 12
-5 0 -10 6 -10 14 0 8 -3 16 -8 18 -4 2 -35 48 -69 103 -74 119 -113 173 -158
221 -32 33 -99 65 -133 63 -41 -3 -49 -9 -113 -94 -90 -119 -130 -217 -123
-295 2 -19 6 -62 9 -95 3 -33 7 -71 10 -85 3 -14 7 -48 10 -76 2 -28 6 -64 9
-80 3 -16 8 -51 11 -79 3 -27 7 -63 9 -80 2 -16 7 -59 11 -95 4 -36 8 -76 10
-90 5 -34 13 -94 21 -160 3 -30 8 -66 9 -80 2 -14 6 -54 10 -90 4 -36 8 -72
10 -80 3 -8 7 -40 10 -70 3 -30 7 -71 10 -90 14 -105 15 -140 7 -140 -5 0 -26
15 -47 32 -21 18 -48 40 -61 48 -29 19 -267 202 -274 210 -3 4 -12 9 -20 13
-8 4 -58 40 -110 81 l-94 73 -40 -49 c-52 -66 -65 -108 -61 -198 4 -84 7 -103
37 -210 11 -41 21 -79 23 -85 1 -5 5 -17 8 -25 21 -52 160 -479 177 -545 23
-91 38 -183 41 -260 3 -51 -17 -210 -27 -227 -3 -4 -7 -18 -9 -30 -5 -22 -27
-78 -47 -112 -35 -63 -85 -255 -71 -270 15 -15 307 256 398 369 22 27 47 56
55 65 8 9 26 30 40 48 14 19 37 48 52 65 15 18 28 36 28 40 0 4 11 19 25 33
14 14 25 29 25 34 0 5 6 15 13 22 6 7 39 54 72 103 33 50 63 92 68 93 4 2 7 9
7 15 0 7 14 30 30 51 17 22 30 46 30 53 0 7 5 13 10 13 6 0 10 4 10 9 0 4 25
48 55 97 30 49 58 96 62 104 4 8 22 42 41 75 56 98 124 229 216 415 48 96 94
187 102 202 8 14 14 33 14 42 0 9 3 16 8 16 4 0 16 21 26 48 11 26 37 84 58
130 21 45 38 84 38 86 0 3 10 26 22 53 11 26 23 53 24 58 9 28 136 342 144
357 6 10 10 23 10 29 0 6 6 25 14 42 15 34 96 262 101 287 2 8 4 16 5 18 2 1
4 7 5 12 1 6 3 11 5 13 1 1 3 9 5 17 2 8 10 34 18 57 9 22 13 44 10 46 -5 5
109 98 129 106 7 2 8 -15 4 -50 -4 -30 -9 -74 -12 -99 -10 -89 -59 -304 -108
-475 -2 -5 -8 -23 -14 -38 -7 -16 -12 -36 -12 -46 0 -10 -3 -21 -8 -25 -4 -4
-8 -12 -8 -17 -1 -5 -3 -11 -4 -14 -1 -3 -3 -8 -5 -12 -1 -5 -5 -17 -9 -28 -4
-11 -17 -45 -28 -75 -84 -230 -285 -646 -419 -869 -22 -34 -39 -65 -39 -67 0
-3 -20 -35 -43 -72 -24 -37 -71 -110 -105 -162 -33 -52 -65 -100 -71 -107 -6
-7 -11 -16 -11 -21 0 -4 -8 -17 -18 -28 -10 -10 -27 -34 -37 -51 -11 -18 -23
-33 -27 -33 -4 0 -8 -5 -8 -11 0 -6 -10 -24 -22 -39 -13 -15 -30 -37 -38 -50
-46 -69 -338 -445 -382 -491 -7 -8 -35 -41 -63 -74 -50 -60 -98 -115 -146
-167 -14 -15 -57 -62 -95 -104 -89 -98 -328 -337 -434 -434 -108 -99 -117
-106 -185 -165 -33 -27 -69 -59 -81 -70 -13 -11 -38 -31 -55 -45 -18 -14 -68
-53 -110 -87 -43 -34 -87 -66 -98 -72 -10 -6 -25 -17 -33 -24 -32 -33 -365
-245 -412 -263 -15 -6 -16 4 -12 112 2 66 5 119 6 119 1 0 3 18 5 40 3 46 10
97 26 175 15 73 15 73 22 90 3 8 14 42 23 75 9 33 20 67 24 75 4 8 20 41 35
73 25 51 70 127 100 165 52 68 179 182 260 233 22 14 58 37 80 51 22 14 45 27
50 29 10 4 139 77 180 102 78 48 144 104 203 172 24 28 71 132 83 181 16 70
20 211 8 264 -15 67 -77 128 -179 177 -285 135 -294 141 -346 208 -43 56 -46
67 -49 180 -2 80 1 109 15 140 22 49 111 141 250 260 377 324 517 508 596 780
34 116 35 132 39 374 3 217 -2 251 -46 310 -12 16 -41 39 -65 51 -37 19 -59
23 -151 23 -141 -1 -183 -7 -333 -49 -69 -20 -129 -36 -135 -37 -5 -2 -14 -5
-20 -9 -17 -10 -87 0 -97 14 -12 18 -7 88 9 118 7 14 13 30 13 36 0 20 38 100
185 399 143 288 218 459 207 469 -3 3 1 6 8 6 7 0 11 3 7 6 -3 4 0 22 8 40 8
19 14 37 15 39 0 3 0 6 1 8 0 1 2 9 4 17 1 8 10 42 18 75 9 33 18 76 21 95 3
19 8 44 10 56 23 111 28 341 9 396 -16 47 -41 96 -60 116 -7 7 -13 16 -13 20
0 4 -10 19 -23 34 -12 14 -29 36 -37 48 -13 18 -22 20 -60 16 -149 -17 -244
-47 -348 -113 -28 -18 -55 -34 -59 -35 -7 -3 -49 -41 -155 -140 -22 -21 -44
-38 -49 -38 -29 0 -33 52 -35 480 -2 402 -4 471 -19 540 -2 14 -10 50 -16 80
-6 30 -15 60 -19 65 -5 6 -8 12 -8 15 2 12 -27 89 -50 130 -43 78 -81 124
-152 183 -72 60 -215 82 -308 48z m155 -2194 c1 -40 4 -119 7 -177 3 -58 8
-154 11 -215 3 -60 8 -137 10 -170 3 -33 7 -111 10 -174 3 -62 8 -117 11 -122
3 -5 0 -9 -6 -9 -7 0 -8 -6 -2 -17 5 -10 8 -42 8 -70 -1 -29 2 -53 5 -53 5 0
3 -1111 -6 -2365 -6 -833 -5 -732 -4 -747 0 -7 -2 -62 -5 -123 -3 -60 -8 -173
-11 -250 -3 -77 -7 -196 -10 -265 -4 -69 -8 -186 -11 -260 -4 -130 -11 -316
-19 -485 -1 -44 -4 -99 -4 -123 -1 -39 -3 -43 -23 -40 -20 3 -23 9 -25 63 -1
33 -4 110 -7 170 -4 61 -8 157 -11 215 -2 58 -7 150 -10 205 -3 55 -8 150 -11
210 -3 61 -8 153 -11 205 -8 131 -8 3737 0 3830 7 80 12 147 22 275 3 44 8
107 11 140 3 33 7 94 9 135 2 41 7 104 10 140 4 36 7 81 9 100 3 45 12 59 34
54 14 -4 17 -18 19 -77z"/>
</g>
</svg>
