<?xml version="1.0" encoding="UTF-8"?>
<!DOCTYPE svg PUBLIC "-//W3C//DTD SVG 1.1//EN" "http://www.w3.org/Graphics/SVG/1.1/DTD/svg11.dtd">
<!-- Creator: CorelDRAW -->
<svg xmlns="http://www.w3.org/2000/svg" xml:space="preserve" width="11.0107mm" height="13.9585mm" style="shape-rendering:geometricPrecision; text-rendering:geometricPrecision; image-rendering:optimizeQuality; fill-rule:evenodd; clip-rule:evenodd"
viewBox="0 0 632.039 801.249"
 xmlns:xlink="http://www.w3.org/1999/xlink">
 <defs>
  <style type="text/css">
   <![CDATA[
    .fil0 {fill:#b0b0b0}
   ]]>
  </style>
 </defs>
 <g id="Слой_x0020_1">
  <metadata id="CorelCorpID_0Corel-Layer"/>
  <path class="fil0" d="M399.445 437.95l0 19.9071c0,11.6469 8.25444,19.9071 19.9071,19.9071l14.9303 0c11.6469,0 19.9071,-8.26018 19.9071,-19.9071l0 -19.9071c0,-11.6527 -8.26018,-19.9071 -19.9071,-19.9071l-14.9303 0c-11.6527,0 -19.9071,8.25444 -19.9071,19.9071z"/>
  <path class="fil0" d="M183.297 437.95l0 19.9071c0,11.6469 8.25444,19.9071 19.9071,19.9071l14.9303 0c11.6469,0 19.9071,-8.26018 19.9071,-19.9071l0 -19.9071c0,-11.6527 -8.26018,-19.9071 -19.9071,-19.9071l-14.9303 0c-11.6527,0 -19.9071,8.25444 -19.9071,19.9071z"/>
  <path class="fil0" d="M393.429 352.432c-8.14538,0 -14.9303,2.97918 -14.9303,9.95355 0,6.97437 6.78494,9.95355 14.9303,9.95355l64.698 0c8.14538,0 14.9303,-2.97918 14.9303,-9.95355 0,-6.97437 -6.78494,-9.95355 -14.9303,-9.95355l-64.698 0z"/>
  <path class="fil0" d="M179.462 352.432c-8.14538,0 -14.9303,2.97918 -14.9303,9.95355 0,6.97437 6.78494,9.95355 14.9303,9.95355l64.698 0c8.14538,0 14.9303,-2.97918 14.9303,-9.95355 0,-6.97437 -6.78494,-9.95355 -14.9303,-9.95355l-64.698 0z"/>
  <path class="fil0" d="M240.745 603.917c-2.23869,-1.38913 -8.63329,-6.49219 -13.8971,-0.77493 -6.59552,6.24536 -0.476438,12.1808 3.1973,15.2518 22.1974,18.8566 54.027,29.8606 84.6051,29.8606 28.2936,0 106.734,-25.0561 85.8048,-45.9849 -5.84929,-5.24082 -27.4899,11.5608 -44.4006,17.7086 -44.9746,16.3539 -78.9855,11.1934 -115.31,-16.0611z"/>
  <path class="fil0" d="M306.367 572.002l24.8839 0c13.7708,0 11.9684,-3.84021 14.9303,-14.9303l-54.7445 0c2.96195,11.0901 1.16527,14.9303 14.9303,14.9303z"/>
  <path class="fil0" d="M65.3754 537.394c-29.8549,-14.4194 -35.5205,-49.3602 -35.5205,-84.5133l0 -24.8839c0,-15.1255 8.63329,-16.8992 19.9071,-19.9071 0.952877,46.1342 8.05353,88.6233 15.6134,129.304zm498.745 -4.1674l13.1738 -125.137c36.6972,12.2324 28.1501,30.802 22.76,68.5325 -4.87919,24.4074 -10.5735,42.5351 -35.9338,56.6043zm-404.869 -349.092c40.2677,0 49.2339,-14.9303 94.5587,-14.9303l14.9303 0c27.7712,0 84.6625,144.326 268.74,144.326 6.01575,8.98345 9.95355,8.7481 9.95355,19.9071l0 59.7213c0,128.719 -37.5238,323.485 -159.257,323.485l-19.9071 0c-16.4859,0 -40.9278,-35.5435 -54.7388,-44.791 -14.3161,9.58617 -42.5236,44.791 -59.7213,44.791l-14.9303 0c-93.4336,0 -149.303,-167.132 -149.303,-273.717l0 -34.8374c0,-9.68376 32.9718,-82.6477 39.8831,-109.42 11.3312,-43.8955 7.06621,-80.5927 29.7918,-114.535zm442.927 199.071l-14.9303 -4.97677c-13.4953,-21.2618 3.80577,-70.4498 9.95355,-79.6284 -1.71059,-39.4583 -0.711788,-46.3925 -5.88947,-83.6063l-9.04085 -30.8594c-17.301,-36.5652 -35.4459,-64.3479 -64.698,-99.5297l-4.97677 -4.97677 -4.97677 -4.97677 -4.97677 -4.97677 -4.97677 -4.97677c-37.1048,-24.8494 -87.8943,-64.698 -149.297,-64.698l-14.9303 0c-90.5291,0 -112.927,40.2964 -164.234,74.6516 -18.2482,0 -28.0008,-12.4563 -54.7445,0 -60.1633,40.2849 -94.5587,72.8205 -94.5587,174.181 0,59.7328 22.318,98.5654 24.8839,129.396 -20.7222,1.72207 -44.7852,29.499 -44.7852,44.791l0 39.8142c0,46.0366 23.2536,88.0895 56.8684,102.383 22.1113,9.39674 48.7747,82.1024 62.1609,106.309 18.7476,33.9075 50.2155,55.8122 76.4483,78.5664 32.3117,28.0295 54.8823,51.1569 113.077,51.1569l24.8839 0c63.8141,0 165.347,-93.2786 189.278,-134.206 16.5778,-28.351 23.1675,-87.9345 56.1566,-103.094 33.0465,-15.1829 53.1659,-64.7555 53.1659,-111.068l0 -4.97677c0,-37.1679 -7.33026,-49.607 -29.8606,-64.698z"/>
 </g>
</svg>
