<?xml version="1.0" encoding="UTF-8"?>
<!DOCTYPE svg PUBLIC "-//W3C//DTD SVG 1.1//EN" "http://www.w3.org/Graphics/SVG/1.1/DTD/svg11.dtd">
<!-- Creator: CorelDRAW -->
<svg xmlns="http://www.w3.org/2000/svg" xml:space="preserve" width="11.0734mm" height="14.7744mm" style="shape-rendering:geometricPrecision; text-rendering:geometricPrecision; image-rendering:optimizeQuality; fill-rule:evenodd; clip-rule:evenodd"
viewBox="0 0 617.701 824.152"
 xmlns:xlink="http://www.w3.org/1999/xlink">
 <defs>
  <style type="text/css">
   <![CDATA[
    .fil0 {fill:#b0b0b0}
   ]]>
  </style>
 </defs>
 <g id="Слой_x0020_1">
  <metadata id="CorelCorpID_0Corel-Layer"/>
  <path class="fil0" d="M389.155 500.809l0 19.3453c0,11.3183 8.02151,19.3453 19.3453,19.3453l14.509 0c11.3183,0 19.3453,-8.02709 19.3453,-19.3453l0 -19.3453c0,-11.3238 -8.02709,-19.3453 -19.3453,-19.3453l-14.509 0c-11.3238,0 -19.3453,8.02151 -19.3453,19.3453z"/>
  <path class="fil0" d="M179.106 500.809l0 19.3453c0,11.3183 8.02151,19.3453 19.3453,19.3453l14.509 0c11.3183,0 19.3453,-8.02709 19.3453,-19.3453l0 -19.3453c0,-11.3238 -8.02709,-19.3453 -19.3453,-19.3453l-14.509 0c-11.3238,0 -19.3453,8.02151 -19.3453,19.3453z"/>
  <path class="fil0" d="M383.309 417.704c-7.91552,0 -14.509,2.89511 -14.509,9.67267 0,6.77756 6.59348,9.67267 14.509,9.67267l62.8724 0c7.91552,0 14.509,-2.89511 14.509,-9.67267 0,-6.77756 -6.59348,-9.67267 -14.509,-9.67267l-62.8724 0z"/>
  <path class="fil0" d="M175.38 417.704c-7.91552,0 -14.509,2.89511 -14.509,9.67267 0,6.77756 6.59348,9.67267 14.509,9.67267l62.8724 0c7.91552,0 14.509,-2.89511 14.509,-9.67267 0,-6.77756 -6.59348,-9.67267 -14.509,-9.67267l-62.8724 0z"/>
  <path class="fil0" d="M234.933 662.093c-2.17551,-1.34993 -8.38967,-6.30899 -13.5049,-0.753063 -6.4094,6.06913 -0.462994,11.837 3.10708,14.8214 21.5711,18.3245 52.5024,29.018 82.2177,29.018 27.4952,0 103.722,-24.349 83.3835,-44.6873 -5.68423,-5.09293 -26.7142,11.2346 -43.1477,17.2089 -43.7055,15.8924 -76.7566,10.8776 -112.056,-15.6079z"/>
  <path class="fil0" d="M298.704 631.078l24.1817 0c13.3822,0 11.6306,-3.73184 14.509,-14.509l-53.1997 0c2.87837,10.7772 1.13238,14.509 14.509,14.509z"/>
  <path class="fil0" d="M332.29 790.303l-29.018 0c-122.85,0 -212.799,-112.424 -212.799,-227.308l0 -29.018c0,-46.2938 18.1181,-189.482 37.7312,-213.753 43.7669,-54.1647 94.6349,-66.7492 189.577,-66.7492l19.3453 0c76.143,0 113.763,20.924 151.26,61.5336 16.9802,18.3859 37.3519,143.986 37.3519,180.278 0,75.1724 -11.1174,154.59 -40.4311,201.386 -26.2679,41.9205 -87.3664,93.6308 -153.017,93.6308zm-280.507 -319.198l0 43.527 11.8147 77.0244c-27.4394,-15.6581 -63.1847,-116.267 -11.8147,-120.551zm503.213 121.634c-0.41279,-34.7859 9.43281,-68.0267 9.43281,-102.288l0 -19.3453c51.9502,17.3149 26.9206,98.5062 -9.43281,121.634zm-314.044 -494.221l-11.2178 -35.2935 -52.2068 40.3307 -9.67267 4.83634 -4.83634 4.83634 -4.83634 4.83076c-64.3283,34.044 -130.581,131.005 -130.581,232.144l0 33.8543c0,13.6053 12.618,40.141 14.509,62.8724 -74.8433,17.4264 -40.4813,177.996 29.018,183.775 7.03416,84.4825 109.244,193.448 203.126,193.448l43.527 0c105.702,0 155.438,-41.1953 196.354,-108.324 23.8972,-39.1983 20.7343,-71.2174 55.1967,-94.7297 20.5,-18.8043 50.0647,-43.2816 48.2964,-106.466l0 -4.83634c0,-42.6568 -10.621,-52.8538 -39.3043,-67.8091l10.2863 -72.439 0 -33.8543c0,-71.8589 -24.8232,-107.543 -53.1997,-149.926l-4.83634 -4.83634 -4.83634 -4.83634 -4.83634 -4.83634 -4.83634 -4.83634 -4.83634 -4.83634 -4.83634 -4.83634 -4.83634 -4.83634 -4.83634 -4.83634 -4.83634 -4.83634 -4.83634 -4.83634 -4.83634 -4.83634 -4.83634 -4.83634 -4.83634 -4.83634 -4.83634 -4.83634 -24.1817 -14.5034 -19.3063 -9.73403c-39.3935,-15.7362 -35.0035,-15.5689 -82.2512,-43.4657l-4.83634 -4.83634 -27.1437 -45.5184 -40.565 64.8638c-22.7983,22.7425 -19.1501,17.0583 -28.4658,33.6535z"/>
 </g>
</svg>
