<?xml version="1.0" encoding="UTF-8"?>
<!DOCTYPE svg PUBLIC "-//W3C//DTD SVG 1.1//EN" "http://www.w3.org/Graphics/SVG/1.1/DTD/svg11.dtd">
<!-- Creator: CorelDRAW -->
<svg xmlns="http://www.w3.org/2000/svg" xml:space="preserve" width="12.0511mm" height="15.2589mm" style="shape-rendering:geometricPrecision; text-rendering:geometricPrecision; image-rendering:optimizeQuality; fill-rule:evenodd; clip-rule:evenodd"
viewBox="0 0 2614.53 3310.48"
 xmlns:xlink="http://www.w3.org/1999/xlink">
 <defs>
  <style type="text/css">
   <![CDATA[
    .fil0 {fill:#b0b0b0}
   ]]>
  </style>
 </defs>
 <g id="Слой_x0020_1">
  <metadata id="CorelCorpID_0Corel-Layer"/>
  <path class="fil0" d="M1456.48 1542.39l0 75.2396c0,44.02 31.198,75.2396 75.2396,75.2396l56.4297 0c44.02,0 75.2396,-31.2197 75.2396,-75.2396l0 -75.2396c0,-44.0417 -31.2197,-75.2396 -75.2396,-75.2396l-56.4297 0c-44.0417,0 -75.2396,31.198 -75.2396,75.2396z"/>
  <path class="fil0" d="M639.537 1542.39l0 75.2396c0,44.02 31.198,75.2396 75.2396,75.2396l56.4297 0c44.02,0 75.2396,-31.2197 75.2396,-75.2396l0 -75.2396c0,-44.0417 -31.2197,-75.2396 -75.2396,-75.2396l-56.4297 0c-44.0417,0 -75.2396,31.198 -75.2396,75.2396z"/>
  <path class="fil0" d="M1433.74 1219.17c-30.7858,0 -56.4297,11.2599 -56.4297,37.6198 0,26.3599 25.644,37.6198 56.4297,37.6198l244.529 0c30.7858,0 56.4297,-11.2599 56.4297,-37.6198 0,-26.3599 -25.644,-37.6198 -56.4297,-37.6198l-244.529 0z"/>
  <path class="fil0" d="M625.044 1219.17c-30.7858,0 -56.4297,11.2599 -56.4297,37.6198 0,26.3599 25.644,37.6198 56.4297,37.6198l244.529 0c30.7858,0 56.4297,-11.2599 56.4297,-37.6198 0,-26.3599 -25.644,-37.6198 -56.4297,-37.6198l-244.529 0z"/>
  <path class="fil0" d="M856.665 2169.67c-8.46121,-5.25029 -32.6299,-24.5375 -52.5246,-2.92888 -24.928,23.6046 -1.80072,46.0376 12.0843,57.6447 83.8961,71.2694 204.197,112.859 319.768,112.859 106.937,0 403.404,-94.7004 324.303,-173.802 -22.1076,-19.8079 -103.899,43.6945 -167.814,66.9303 -169.983,61.8102 -298.529,42.306 -435.817,-60.7037z"/>
  <path class="fil0" d="M1104.69 2049.04l94.0496 0c52.0473,0 45.2349,-14.5142 56.4297,-56.4297l-206.909 0c11.1948,41.9155 4.40417,56.4297 56.4297,56.4297z"/>
  <path class="fil0" d="M620.727 319.747c0,36.3398 33.5194,75.2396 56.4297,75.2396 36.3181,0 75.2396,-33.5194 75.2396,-56.4297 0,-36.3181 -33.5411,-75.2396 -56.4297,-75.2396 -36.3398,0 -75.2396,33.5411 -75.2396,56.4297z"/>
  <path class="fil0" d="M112.859 1523.58c0,-30.7858 11.2599,-56.4297 37.6198,-56.4297 40.8307,0 70.9657,381.253 75.2396,432.606 -48.576,-32.5214 -112.859,-127.894 -112.859,-206.909l0 -169.268zm2024.98 -75.8688c35.7323,20.2201 62.895,25.5572 62.895,75.8688l0 112.838c0,128.068 -35.5371,230.362 -108.52,282.583l45.6254 -471.289zm-1818.07 -112.23c0,-123.252 104.615,-158.008 174.279,-220.729 102.706,-92.5092 101.361,-111.775 164.299,-230.709 70.2931,16.38 120.323,49.8343 184.498,78.8194 60.9424,27.5315 129.196,30.6339 191.484,53.0453 82.7463,29.7661 329.38,43.0003 434.364,54.6941 336.778,37.5547 525.137,88.2352 525.137,452.978l0 75.2179c0,471.897 -323.609,1022.18 -775.784,1022.18l-75.2396 0c-623.808,0 -823.037,-591.026 -823.037,-1229.07l0 -56.4297zm357.388 -1222.62l-18.8099 18.8099 -37.6198 18.8099c-45.8641,12.8654 -47.4912,14.9698 -94.0496,37.6198 -232.792,123.165 -413.818,468.382 -413.818,827.614l-4.27399 132.19 23.0839 206.388c-71.725,19.1353 -131.669,79.2533 -131.669,169.289l0 94.0279c0,201.594 82.9198,447.012 282.149,451.438 220.599,474.826 495.154,654.203 940.474,647.304 209.968,0 366.457,-111.731 470.248,-139.436 0,483.091 221.228,733.565 695.945,733.565l225.719 0c-13.2342,-49.574 -319.768,-389.02 -319.768,-507.846l0 -188.099c0,-87.7579 37.6198,-58.9898 37.6198,-188.099 75.8905,-113.315 263.339,-1003.02 263.339,-1241.43l0 -37.6198c0,-290.523 -166.751,-733.587 -394.986,-733.587l-112.859 0c-57.2975,0 -68.8178,8.54799 -116.895,22.8453 -43.3908,-50.073 -67.4727,-56.7335 -165.254,-154.515l-18.8099 -18.8099c-66.4747,-57.7098 -94.5052,-98.7575 -206.909,-150.458 -70.1846,-33.693 -296.836,-112.859 -395.008,-112.859l-112.859 0c-165.579,0 -295.339,46.1244 -394.986,112.859z"/>
 </g>
</svg>
