<?xml version="1.0" encoding="UTF-8"?>
<!DOCTYPE svg PUBLIC "-//W3C//DTD SVG 1.1//EN" "http://www.w3.org/Graphics/SVG/1.1/DTD/svg11.dtd">
<!-- Creator: CorelDRAW -->
<svg xmlns="http://www.w3.org/2000/svg" xml:space="preserve" width="11.0974mm" height="13.6117mm" style="shape-rendering:geometricPrecision; text-rendering:geometricPrecision; image-rendering:optimizeQuality; fill-rule:evenodd; clip-rule:evenodd"
viewBox="0 0 692.538 849.443"
 xmlns:xlink="http://www.w3.org/1999/xlink">
 <defs>
  <style type="text/css">
   <![CDATA[
    .fil0 {fill:#b0b0b0}
   ]]>
  </style>
 </defs>
 <g id="Слой_x0020_1">
  <metadata id="CorelCorpID_0Corel-Layer"/>
  <path class="fil0" d="M442.198 486.943l0 21.6422c0,12.6621 8.97389,21.6422 21.6422,21.6422l16.2316 0c12.6621,0 21.6422,-8.98014 21.6422,-21.6422l0 -21.6422c0,-12.6683 -8.98014,-21.6422 -21.6422,-21.6422l-16.2316 0c-12.6683,0 -21.6422,8.97389 -21.6422,21.6422z"/>
  <path class="fil0" d="M193.569 486.943l0 21.6422c0,12.6621 8.97389,21.6422 21.6422,21.6422l16.2316 0c12.6621,0 21.6422,-8.98014 21.6422,-21.6422l0 -21.6422c0,-12.6683 -8.98014,-21.6422 -21.6422,-21.6422l-16.2316 0c-12.6683,0 -21.6422,8.97389 -21.6422,21.6422z"/>
  <path class="fil0" d="M422.016 393.971c-8.85532,0 -16.2316,3.23884 -16.2316,10.8211 0,7.58225 7.37632,10.8211 16.2316,10.8211l70.3371 0c8.85532,0 16.2316,-3.23884 16.2316,-10.8211 0,-7.58225 -7.37632,-10.8211 -16.2316,-10.8211l-70.3371 0z"/>
  <path class="fil0" d="M189.4 393.971c-8.85532,0 -16.2316,3.23884 -16.2316,10.8211 0,7.58225 7.37632,10.8211 16.2316,10.8211l70.3371 0c8.85532,0 16.2316,-3.23884 16.2316,-10.8211 0,-7.58225 -7.37632,-10.8211 -16.2316,-10.8211l-70.3371 0z"/>
  <path class="fil0" d="M256.024 667.376c-2.43381,-1.51021 -9.38577,-7.05805 -15.1083,-0.842473 -7.17038,6.78971 -0.517965,13.2424 3.47598,16.5811 24.1322,20.5002 58.7359,32.4633 91.9793,32.4633 30.7596,0 116.037,-27.24 93.2836,-49.993 -6.35911,-5.69761 -29.8859,12.5684 -48.2706,19.2521 -48.8946,17.7793 -85.8698,12.1691 -125.36,-17.461z"/>
  <path class="fil0" d="M327.366 632.678l27.0527 0c14.9711,0 13.0115,-4.17492 16.2316,-16.2316l-59.516 0c3.22012,12.0567 1.26683,16.2316 16.2316,16.2316z"/>
  <path class="fil0" d="M357.09 811.57l-43.2844 0c-63.953,0 -117.697,-43.2095 -147.152,-80.0911 -14.5841,-18.2598 -66.2496,-143.295 -65.12,-168.906l6.67114 -81.0396 10.8211 0c0,45.7244 26.8718,89.2023 72.3778,89.2023l53.7186 0.330749c43.2532,0 70.7802,-28.0637 74.0939,-67.8908l54.1055 0c0,43.1658 22.5159,64.9203 64.9203,64.9203l43.2844 0c68.4649,0 85.8698,-12.2689 87.0368,-91.6423l21.1741 -0.330749 0 37.8738c0,72.54 -21.5174,132.131 -43.9521,183.285 -10.6838,24.3443 -29.7674,45.7931 -49.2566,64.3649 -41.8615,39.8958 -85.3643,45.4186 -139.439,49.9243zm281.592 -351.648c11.8071,3.18892 15.982,1.22939 15.982,16.2004l0 21.6422c0,43.2407 -6.09701,74.3186 -34.4415,91.6922l18.4595 -129.535zm-606.225 16.2004c0,-17.7543 10.9147,-20.3005 27.0527,-21.6422l0 27.0527 9.86005 108.317c-24.3194,-6.85835 -36.9128,-51.7902 -36.9128,-81.2643l0 -32.4633zm113.621 -5.41055c0,-19.0024 24.0074,-21.6422 43.2844,-21.6422l27.0527 0c30.0981,0 81.1582,10.2969 81.1582,37.8738l0 16.2316c0,26.7407 -21.9542,48.6949 -48.6949,48.6949l-27.0527 0c-39.0283,0 -75.7477,-9.67908 -75.7477,-48.6949l0 -32.4633zm288.6 -17.7606l90.1321 1.52893c12.2564,3.27004 21.6422,5.19837 21.6422,21.6422l0 16.2316c0,33.5242 -5.61648,55.3037 -39.4464,59.0542l-52.5329 0.4618c-33.7613,0 -59.5098,-15.4828 -59.5098,-48.6949l0 -5.41055c0,-25.6736 18.6904,-39.9145 39.7148,-44.8133zm-207.442 -149.966c69.7318,0 109.097,-7.16414 167.733,-16.2254 63.8033,-9.86005 95.9795,-39.5525 135.251,-48.7012 9.71028,20.2318 14.9336,59.8904 22.6282,85.5827 7.00812,23.402 31.4773,56.1586 31.4773,76.7337l0 37.8738c-16.9243,-1.41036 -19.2209,-5.41055 -37.8738,-5.41055l-97.3898 0c-64.4835,0 -68.103,43.2844 -86.5625,43.2844l-32.4633 0c-14.3408,0 -25.6923,-38.6726 -81.1582,-43.2844l-135.264 0 5.41055 -32.4633 0 -54.1055 0 -10.8211c-0.730143,-51.5656 43.7087,-46.3298 79.9163,-51.6529l28.2946 19.1897zm-75.7477 -248.879l-5.41055 5.41055 -5.41055 5.41055 -5.41055 5.41055 -5.41055 5.41055c-39.3154,31.7019 -54.4549,52.0835 -86.5688,135.257l-10.8211 32.4633c-5.10476,42.4981 -5.2795,57.3443 5.41055,108.211l0 21.6422 5.41055 48.6949c-34.2668,7.98165 -43.2781,28.7938 -43.2781,70.3371l0 16.2316c0,39.5338 26.9092,99.7925 53.0695,114.651 39.9207,22.6656 15.5389,-10.4966 37.2186,43.9396 9.0051,22.6095 15.7574,39.9082 27.6393,58.9232 43.378,69.4135 106.844,123.344 217.52,123.344l27.0527 0c91.7983,0 183.06,-59.2102 212.79,-122.658 23.8451,-50.8854 16.475,-79.9975 63.1855,-104.542 27.4521,-14.4281 54.0618,-71.5603 54.0618,-113.659l0 -37.8738c0,-15.4453 -21.5486,-38.9285 -39.1282,-43.4903l12.0754 -86.3628 0 -59.516c0,-112.579 -33.1123,-216.416 -146.085,-216.416 -37.8177,-25.3241 -100.229,-64.9266 -162.31,-64.9266l-70.3371 0c-46.9351,0 -102.576,36.8067 -135.264,54.1055z"/>
  <polygon class="fil0" points="422.01,670.895 416.6,676.306 400.374,681.716 394.964,687.127 400.374,681.716 416.6,676.306 422.01,670.895 427.421,665.485 443.652,665.485 443.652,676.306 438.242,681.716 432.831,687.127 427.421,692.538 416.6,697.948 405.779,703.359 389.553,708.769 405.779,703.359 416.6,697.948 427.421,692.538 432.831,687.127 438.242,681.716 443.652,676.306 443.652,665.485 427.421,665.485 "/>
 </g>
</svg>
