<?xml version="1.0" encoding="UTF-8"?>
<!DOCTYPE svg PUBLIC "-//W3C//DTD SVG 1.1//EN" "http://www.w3.org/Graphics/SVG/1.1/DTD/svg11.dtd">
<!-- Creator: CorelDRAW -->
<svg xmlns="http://www.w3.org/2000/svg" xml:space="preserve" width="11.2708mm" height="13.4383mm" style="shape-rendering:geometricPrecision; text-rendering:geometricPrecision; image-rendering:optimizeQuality; fill-rule:evenodd; clip-rule:evenodd"
viewBox="0 0 2323.18 2769.95"
 xmlns:xlink="http://www.w3.org/1999/xlink">
 <defs>
  <style type="text/css">
   <![CDATA[
    .fil0 {fill:#b0b0b0}
   ]]>
  </style>
 </defs>
 <g id="Слой_x0020_1">
  <metadata id="CorelCorpID_0Corel-Layer"/>
  <path class="fil0" d="M1483.27 1572.62l0 71.4837c0,41.8225 29.6406,71.4837 71.4837,71.4837l53.6128 0c41.8225,0 71.4837,-29.6612 71.4837,-71.4837l0 -71.4837c0,-41.8431 -29.6612,-71.4837 -71.4837,-71.4837l-53.6128 0c-41.8431,0 -71.4837,29.6406 -71.4837,71.4837z"/>
  <path class="fil0" d="M2162.34 1858.53l-50.0262 57.1993 14.2844 -200.146 17.8709 -232.322c44.6876,-53.4891 60.4973,-5.44166 71.4837,35.7418 0,130.394 12.4499,281.627 -53.6128,339.527zm-1894.28 -53.5921l20.1177 107.04c-69.1339,-17.6854 -112.564,-119.964 -128.621,-188.871 -13.0476,-89.6638 -33.0004,-175.473 54.8907,-239.845l53.6128 321.677zm786.3 -625.482l3.25675 26.7136 32.4851 9.02822c157.994,-36.8137 235.29,-55.406 359.995,-122.52 141.421,-76.0802 163.064,-130.559 265.487,-199.157 0,317.801 285.935,456.399 285.935,750.579 0,536.045 -247.967,1000.75 -786.321,1000.75l-35.7418 0c-668.067,0 -804.171,-612.703 -804.171,-1286.69l196.58 -53.6128 87.1903 -41.8843c80.9241,-18.2213 42.75,-27.7236 127.24,-29.5994l89.3546 -17.8709c93.4565,-46.7282 151.336,-104.649 268.064,-107.226l-89.3546 71.4837zm-822.042 839.913c104.917,88.3858 91.4365,89.0248 149.831,243.329 57.0756,103.639 76.1627,166.094 158.2,246.957 176.566,173.762 345.175,237.372 531.881,260.293l124.499 0 125.694 0c295.355,0 546.104,-241.494 646.548,-443.557 21.3544,-42.9356 68.3094,-138.02 86.7368,-181.327 83.6656,-196.724 2.51471,-36.2572 138.227,-147.708 97.5171,-80.0584 126.457,-276.185 120.974,-434.983 -6.51351,-126.313 -80.5119,-188.83 -116.831,-204.207 0,-70.3294 125.096,-218.697 125.096,-393.16 0,-323.614 -139.752,-553.215 -354.327,-664.275 -134.867,-69.8141 -195.178,-83.0884 -321.12,-179.286 -65.4855,-50.0056 -283.235,-121.448 -396.788,-121.448l-160.838 0c-789.557,0 -837.563,979.747 -1090.11,1000.75 0,243.247 56.0656,227.664 142.967,357.418 -150.367,224.572 -104.402,467.447 89.3546,661.203z"/>
  <path class="fil0" d="M707.107 1572.62l0 71.4837c0,41.8225 29.6406,71.4837 71.4837,71.4837l53.6128 0c41.8225,0 71.4837,-29.6612 71.4837,-71.4837l0 -71.4837c0,-41.8431 -29.6612,-71.4837 -71.4837,-71.4837l-53.6128 0c-41.8431,0 -71.4837,29.6406 -71.4837,71.4837z"/>
  <path class="fil0" d="M1461.66 1265.54c-29.2489,0 -53.6128,10.6978 -53.6128,35.7418 0,25.044 24.3638,35.7418 53.6128,35.7418l232.322 0c29.2489,0 53.6128,-10.6978 53.6128,-35.7418 0,-25.044 -24.3638,-35.7418 -53.6128,-35.7418l-232.322 0z"/>
  <path class="fil0" d="M693.338 1265.54c-29.2489,0 -53.6128,10.6978 -53.6128,35.7418 0,25.044 24.3638,35.7418 53.6128,35.7418l232.322 0c29.2489,0 53.6128,-10.6978 53.6128,-35.7418 0,-25.044 -24.3638,-35.7418 -53.6128,-35.7418l-232.322 0z"/>
  <path class="fil0" d="M913.396 2168.59c-8.03882,-4.98819 -31.001,-23.3126 -49.9025,-2.78267 -23.6836,22.4263 -1.71083,43.7394 11.4811,54.7671 79.708,67.7116 194.004,107.226 303.806,107.226 101.598,0 383.266,-89.973 308.114,-165.126 -21.004,-18.8191 -98.7126,41.5133 -159.437,63.5891 -161.498,58.7246 -283.626,40.1941 -414.061,-57.6734z"/>
  <path class="fil0" d="M1149.04 2053.98l89.3546 0c49.4491,0 42.9768,-13.7897 53.6128,-53.6128l-196.58 0c10.636,39.8231 4.18431,53.6128 53.6128,53.6128z"/>
 </g>
</svg>
