<?xml version="1.0" encoding="UTF-8"?>
<!DOCTYPE svg PUBLIC "-//W3C//DTD SVG 1.1//EN" "http://www.w3.org/Graphics/SVG/1.1/DTD/svg11.dtd">
<!-- Creator: CorelDRAW -->
<svg xmlns="http://www.w3.org/2000/svg" xml:space="preserve" width="14.5654mm" height="15.6924mm" style="shape-rendering:geometricPrecision; text-rendering:geometricPrecision; image-rendering:optimizeQuality; fill-rule:evenodd; clip-rule:evenodd"
viewBox="0 0 1092.18 1176.69"
 xmlns:xlink="http://www.w3.org/1999/xlink">
 <defs>
  <style type="text/css">
   <![CDATA[
    .fil0 {fill:#b0b0b0}
   ]]>
  </style>
 </defs>
 <g id="Слой_x0020_1">
  <metadata id="CorelCorpID_0Corel-Layer"/>
  <path class="fil0" d="M660.961 557.519l0 26.0047c0,15.2144 10.7828,26.0047 26.0047,26.0047l19.5035 0c15.2144,0 26.0047,-10.7903 26.0047,-26.0047l0 -26.0047c0,-15.2219 -10.7903,-26.0047 -26.0047,-26.0047l-19.5035 0c-15.2219,0 -26.0047,10.7828 -26.0047,26.0047z"/>
  <path class="fil0" d="M378.606 557.519l0 26.0047c0,15.2144 10.7828,26.0047 26.0047,26.0047l19.5035 0c15.2144,0 26.0047,-10.7903 26.0047,-26.0047l0 -26.0047c0,-15.2219 -10.7903,-26.0047 -26.0047,-26.0047l-19.5035 0c-15.2219,0 -26.0047,10.7828 -26.0047,26.0047z"/>
  <path class="fil0" d="M653.102 445.807c-10.6403,0 -19.5035,3.89171 -19.5035,13.0024 0,9.11065 8.8632,13.0024 19.5035,13.0024l84.5153 0c10.6403,0 19.5035,-3.89171 19.5035,-13.0024 0,-9.11065 -8.8632,-13.0024 -19.5035,-13.0024l-84.5153 0z"/>
  <path class="fil0" d="M373.597 445.807c-10.6403,0 -19.5035,3.89171 -19.5035,13.0024 0,9.11065 8.8632,13.0024 19.5035,13.0024l84.5153 0c10.6403,0 19.5035,-3.89171 19.5035,-13.0024 0,-9.11065 -8.8632,-13.0024 -19.5035,-13.0024l-84.5153 0z"/>
  <path class="fil0" d="M453.65 774.323c-2.92441,-1.81463 -11.2777,-8.48078 -18.1538,-1.01229 -8.61575,8.15834 -0.622374,15.9118 4.17665,19.9235 28.9966,24.6325 70.5757,39.0071 110.52,39.0071 36.96,0 139.427,-32.7308 112.087,-60.0703 -7.64095,-6.84611 -35.9102,15.1019 -58.0007,23.1328 -58.7506,21.3632 -103.179,14.622 -150.629,-20.9807z"/>
  <path class="fil0" d="M539.373 732.631l32.5059 0c17.9888,0 15.6343,-5.01648 19.5035,-19.5035l-71.513 0c3.86921,14.4871 1.52219,19.5035 19.5035,19.5035z"/>
  <path class="fil0" d="M266.548 546.092c16.3167,2.59447 13.1973,52.7818 19.5035,78.0066 6.15625,17.014 48.2977,39.0071 117.014,39.0071l26.0047 0c44.6384,0 89.9142,-28.4717 91.0165,-78.0141l66.1066 0c8.3758,33.1358 21.1682,74.4374 76.9194,78.0141l81.7634 -0.14997c55.8711,-4.01918 76.402,-26.6121 80.7661,-90.8665l13.0024 0 0 26.0047c0,147.375 -124.977,318.558 -266.548,318.558l-13.0024 0c-191.601,0 -292.546,-175.284 -292.546,-370.56zm383.562 -26.0047c30.6763,-1.70215 143.026,-28.1943 143.026,26.0047l0 38.9996c0,23.8676 -2.74444,49.2875 -49.1375,52.7218l-74.3849 -0.712355c-32.131,0 -58.5106,-26.3721 -58.5106,-58.5106l0 -25.9972c0,-22.4579 20.4783,-28.1943 39.0071,-32.5059zm-337.716 90.4541l-0.337431 -70.9506c0,-57.0034 160.04,-21.2132 175.524,0l6.50118 6.50118c0,50.3748 -3.31433,76.477 -49.085,91.0465 -69.6308,6.97358 -134.68,-13.9472 -132.603,-26.5971zm71.1755 -259.485c0,-45.8307 -11.9901,-57.0559 24.385,-66.6315 41.7215,-10.9778 24.1226,-11.1352 53.6216,-30.8862 13.3323,25.1949 33.3907,52.0094 71.513,52.0094 28.0593,0 36.5326,-13.6322 58.5106,-19.5035 9.40309,35.2278 42.1414,64.5994 79.3114,70.2157 60.0253,9.05066 39.247,20.7783 70.2157,79.3114 37.5824,11.5102 15.2669,5.97629 45.5232,18.3263l-0.014997 33.6832 -65.0118 0c-100.66,0 -140.139,58.5106 -149.527,58.5106l-39.0071 0c-2.87941,0 -47.8553,-40.6267 -92.3887,-50.6372 -44.9759,-10.1154 -82.2283,-7.8734 -135.145,-7.8734 11.6826,-22.0905 19.5035,-43.8211 19.5035,-78.0141l0 -19.5035 4.99399 6.79362 53.5166 -45.8007zm71.5055 -286.044c-28.3892,-2.36952 -41.4291,-13.0024 -71.5055,-13.0024 -28.4567,0 -57.5283,14.562 -73.4026,30.6163 -32.4609,32.8433 -26.3571,56.3735 -36.1577,67.8612 -18.8512,22.113 -98.4775,31.0137 -98.4775,109.553l0 13.0024c0,23.6202 7.71593,22.8029 13.0024,45.5083 -28.9816,15.3344 -71.513,48.2677 -71.513,91.0165l0 58.5106c0,19.796 2.9544,23.7777 6.50118,39.0071 -15.0344,22.4504 -45.5083,59.3279 -45.5083,97.5102l0 45.5083c0,14.577 5.14395,14.2771 13.0024,26.0047 -20.3734,30.4213 -65.0118,58.2557 -65.0118,110.52 0,35.0704 19.5035,63.887 19.5035,78.0141 0,6.92859 -26.0047,18.7312 -26.0047,65.0118l0 32.5059c0,23.8602 10.078,31.4186 19.5035,45.5083 -18.2888,27.3095 -39.0071,40.6942 -39.0071,91.009l0 26.0047c0,23.1628 3.17935,52.0094 26.0047,52.0094 3.36682,0 225.569,-67.5313 249.002,-76.057 83.9529,-30.5263 172.772,-49.8724 172.765,-162.552 73.3126,9.11065 139.494,8.69823 206.86,0.757346l1.9796 42.8238c0,78.4266 90.4391,92.0438 154.821,111.72 43.6411,13.3323 161.615,57.3034 208.263,60.5352l65.9866 16.2717c1.69466,-20.3359 6.50118,-23.0953 6.50118,-45.5083l0 -58.5106c0,-40.5518 -22.8329,-66.8564 -39.0071,-91.009 7.54347,-15.7243 13.0024,-28.4417 13.0024,-52.0094l0 -58.5106c0,-38.3772 -45.5083,-90.8515 -45.5083,-91.0165 0,-21.3857 19.5035,-28.1343 19.5035,-58.5106l0 -32.5059c0,-48.9576 -26.5596,-67.6063 -58.5106,-84.5153 13.3098,-19.8785 32.5059,-58.3381 32.5059,-91.009l0 -19.5035c0,-45.3958 -41.0767,-77.9917 -58.5106,-104.019 3.54678,-15.2294 6.50118,-19.2036 6.50118,-39.0071l0 -65.0118c0,-27.8418 -25.0374,-54.259 -40.4918,-70.0208 -45.9432,-46.843 -37.6873,9.838 -53.0517,-57.4683 -13.5572,-59.3579 -62.0274,-87.0423 -133.99,-87.0423l-32.5059 0c-13.2048,-49.445 -74.5124,-65.0118 -136.525,-65.0118 -56.1336,0 -90.844,27.8343 -110.52,65.0118z"/>
 </g>
</svg>
