<?xml version="1.0" encoding="UTF-8"?>
<!DOCTYPE svg PUBLIC "-//W3C//DTD SVG 1.1//EN" "http://www.w3.org/Graphics/SVG/1.1/DTD/svg11.dtd">
<!-- Creator: CorelDRAW -->
<svg xmlns="http://www.w3.org/2000/svg" xml:space="preserve" width="11.0974mm" height="13.3515mm" style="shape-rendering:geometricPrecision; text-rendering:geometricPrecision; image-rendering:optimizeQuality; fill-rule:evenodd; clip-rule:evenodd"
viewBox="0 0 610.782 734.844"
 xmlns:xlink="http://www.w3.org/1999/xlink">
 <defs>
  <style type="text/css">
   <![CDATA[
    .fil0 {fill:#b0b0b0}
   ]]>
  </style>
 </defs>
 <g id="Слой_x0020_1">
  <metadata id="CorelCorpID_0Corel-Layer"/>
  <path class="fil0" d="M379.671 395.995l0 19.0873c0,11.1673 7.91451,19.0873 19.0873,19.0873l14.3155 0c11.1673,0 19.0873,-7.92002 19.0873,-19.0873l0 -19.0873c0,-11.1728 -7.92002,-19.0873 -19.0873,-19.0873l-14.3155 0c-11.1728,0 -19.0873,7.91451 -19.0873,19.0873z"/>
  <path class="fil0" d="M172.424 395.995l0 19.0873c0,11.1673 7.91451,19.0873 19.0873,19.0873l14.3155 0c11.1673,0 19.0873,-7.92002 19.0873,-19.0873l0 -19.0873c0,-11.1728 -7.92002,-19.0873 -19.0873,-19.0873l-14.3155 0c-11.1728,0 -19.0873,7.91451 -19.0873,19.0873z"/>
  <path class="fil0" d="M373.903 313.999c-7.80994,0 -14.3155,2.85649 -14.3155,9.54365 0,6.68716 6.50553,9.54365 14.3155,9.54365l62.0337 0c7.80994,0 14.3155,-2.85649 14.3155,-9.54365 0,-6.68716 -6.50553,-9.54365 -14.3155,-9.54365l-62.0337 0z"/>
  <path class="fil0" d="M168.748 313.999c-7.80994,0 -14.3155,2.85649 -14.3155,9.54365 0,6.68716 6.50553,9.54365 14.3155,9.54365l62.0337 0c7.80994,0 14.3155,-2.85649 14.3155,-9.54365 0,-6.68716 -6.50553,-9.54365 -14.3155,-9.54365l-62.0337 0z"/>
  <path class="fil0" d="M227.506 555.128c-2.14649,-1.33193 -8.27776,-6.22483 -13.3248,-0.743017 -6.3239,5.98817 -0.456818,11.6791 3.06563,14.6237 21.2833,18.0801 51.8021,28.6309 81.121,28.6309 27.1284,0 102.338,-24.0242 82.2713,-44.0912 -5.60841,-5.025 -26.3579,11.0847 -42.5721,16.9793 -43.1225,15.6804 -75.7327,10.7325 -110.561,-15.3997z"/>
  <path class="fil0" d="M290.426 524.526l23.8591 0c13.2037,0 11.4755,-3.68206 14.3155,-14.3155l-52.4901 0c2.83998,10.6334 1.11728,14.3155 14.3155,14.3155z"/>
  <path class="fil0" d="M200.411 615.554l-5.26717 -47.7017c-0.066046,-16.2088 29.9684,-31.0801 38.6699,-42.9629 -9.4776,-4.70027 -12.4827,-4.77182 -23.8591,-4.77182 -12.9945,0 -30.5683,14.0403 -37.4206,23.9417 -4.74981,12.7854 -10.9526,22.6538 -8.71807,52.3359l3.19773 33.4743c-39.5836,-10.5729 -81.121,-154.823 -81.121,-209.96l0 -38.1746c28.3502,2.36114 16.3189,12.224 22.6923,39.3469 11.547,49.2208 45.0819,42.8088 87.0541,46.5459 52.7212,5.64693 76.6464,-17.5682 85.8928,-57.2619l40.6733 -0.291703c12.7139,60.1184 34.2724,62.2098 116.797,57.5536 49.8097,0 66.8055,-31.1352 66.8055,-81.121l14.3155 0 0 33.4028c0,75.4796 -32.7203,180.74 -75.5016,209.889 -1.89882,-27.3155 1.56859,-63.3711 -5.83957,-81.9466 -16.7206,-24.9764 -66.1781,-40.2275 -66.5854,-22.962 10.4793,15.6529 38.1746,25.3341 38.1746,42.9464l0 42.9464c0,49.8482 -41.5484,57.2619 -90.6646,57.2619l-14.3155 0c-40.8274,0 -75.6887,-7.44118 -99.146,-24.0187l-5.83406 -28.4713zm345.591 -121.684c2.03642,-29.1758 4.33702,-103.885 21.0412,-127.243 37.0518,26.0606 4.42508,102.201 -21.0412,127.243zm-493.512 -126.451l10.1491 119.197c-30.4912,-7.82645 -58.1645,-115.19 -10.1491,-119.197zm295.848 23.8591c0,-23.9692 50.1839,-28.6309 76.3492,-28.6309l38.1746 0c14.6677,0 19.0873,13.9797 19.0873,28.6309l0 9.54365c0,28.4603 -9.73628,47.7182 -38.1746,47.7182l-66.8055 0c-19.6047,0 -28.6309,-26.2313 -28.6309,-47.7182l0 -9.54365zm-190.867 -28.6309l47.7127 0c20.766,0 52.4901,9.14737 52.4901,28.6309l0 23.8591c0,29.5116 -26.4239,42.0273 -57.2619,38.1746 -40.222,-4.17741 -71.5718,-0.605422 -71.5718,-52.4901l0 -19.0873c0,-14.6677 13.9797,-19.0873 28.6309,-19.0873zm-71.5773 -66.8c0,-90.2078 43.2161,-190.873 133.606,-190.873 35.7694,0 52.6497,38.1746 85.8928,38.1746 36.8427,0 47.2504,-33.4028 81.121,-33.4028l19.0873 0c32.324,0 76.4537,40.4697 89.8611,62.8373 6.88529,11.4865 29.4345,102.223 29.4345,118.492l0 62.0337c-22.3731,-1.8658 -23.6004,-9.54365 -47.7182,-9.54365l-71.5773 0c-47.5476,0 -78.3471,12.2405 -83.1079,38.1691l-40.9595 0c-6.91281,-25.901 -38.0425,-38.1691 -71.5773,-38.1691l-42.9409 0 -81.0494 5.61941 -0.0715498 -53.3376zm-42.9464 -28.6309l0 71.5773c-31.6195,7.36413 -42.9464,28.0585 -42.9464,66.8 0,44.559 11.3159,89.8446 52.5671,114.447 23.4023,13.9522 42.0548,70.5206 57.1683,100.296 15.2291,29.9959 49.0997,60.9384 83.0253,74.4448 29.9629,11.9268 84.1701,40.0624 117.402,40.0624 10.4077,0 103.153,-37.0463 114.639,-42.8253 24.0407,-12.0919 64.0151,-54.8567 77.9453,-79.5194 10.4683,-18.5314 13.7321,-34.6466 23.0335,-53.3156 21.9493,-44.0307 -9.97294,-21.8887 35.1805,-45.9405 26.0276,-13.8642 49.8207,-74.0321 49.8207,-112.421l0 -14.3155c0,-19.5111 -22.1364,-42.8694 -42.9464,-47.7127l0 -66.8055c0,-127.992 -65.9029,-201.176 -143.149,-252.907l-19.6597 0.693483 -13.7431 -10.2316c-31.1627,0 -30.3041,-9.54365 -57.2619,-9.54365l-66.8055 0c-119.026,0 -224.27,138.686 -224.27,267.217z"/>
 </g>
</svg>
