<?xml version="1.0" encoding="UTF-8"?>
<!DOCTYPE svg PUBLIC "-//W3C//DTD SVG 1.1//EN" "http://www.w3.org/Graphics/SVG/1.1/DTD/svg11.dtd">
<!-- Creator: CorelDRAW -->
<svg xmlns="http://www.w3.org/2000/svg" xml:space="preserve" width="10.6614mm" height="14.0142mm" style="shape-rendering:geometricPrecision; text-rendering:geometricPrecision; image-rendering:optimizeQuality; fill-rule:evenodd; clip-rule:evenodd"
viewBox="0 0 585.811 770.037"
 xmlns:xlink="http://www.w3.org/1999/xlink">
 <defs>
  <style type="text/css">
   <![CDATA[
    .fil0 {fill:#b0b0b0}
   ]]>
  </style>
 </defs>
 <g id="Слой_x0020_1">
  <metadata id="CorelCorpID_0Corel-Layer"/>
  <path class="fil0" d="M369.188 475.23l0 19.0556c0,11.1487 7.90136,19.0556 19.0556,19.0556l14.2917 0c11.1487,0 19.0556,-7.90686 19.0556,-19.0556l0 -19.0556c0,-11.1542 -7.90686,-19.0556 -19.0556,-19.0556l-14.2917 0c-11.1542,0 -19.0556,7.90136 -19.0556,19.0556z"/>
  <path class="fil0" d="M162.286 475.23l0 19.0556c0,11.1487 7.90136,19.0556 19.0556,19.0556l14.2917 0c11.1487,0 19.0556,-7.90686 19.0556,-19.0556l0 -19.0556c0,-11.1542 -7.90686,-19.0556 -19.0556,-19.0556l-14.2917 0c-11.1542,0 -19.0556,7.90136 -19.0556,19.0556z"/>
  <path class="fil0" d="M363.43 393.37c-7.79696,0 -14.2917,2.85174 -14.2917,9.52779 0,6.67605 6.49472,9.52779 14.2917,9.52779l61.9306 0c7.79696,0 14.2917,-2.85174 14.2917,-9.52779 0,-6.67605 -6.49472,-9.52779 -14.2917,-9.52779l-61.9306 0z"/>
  <path class="fil0" d="M158.615 393.37c-7.79696,0 -14.2917,2.85174 -14.2917,9.52779 0,6.67605 6.49472,9.52779 14.2917,9.52779l61.9306 0c7.79696,0 14.2917,-2.85174 14.2917,-9.52779 0,-6.67605 -6.49472,-9.52779 -14.2917,-9.52779l-61.9306 0z"/>
  <path class="fil0" d="M217.276 634.098c-2.14293,-1.32971 -8.26401,-6.21449 -13.3026,-0.741783 -6.3134,5.97822 -0.456059,11.6597 3.06054,14.5994 21.248,18.0501 51.716,28.5834 80.9862,28.5834 27.0833,0 102.168,-23.9843 82.1346,-44.018 -5.59909,-5.01665 -26.3141,11.0663 -42.5014,16.9511 -43.0509,15.6544 -75.6069,10.7146 -110.377,-15.3741z"/>
  <path class="fil0" d="M280.092 603.548l23.8195 0c13.1818,0 11.4564,-3.67595 14.2917,-14.2917l-52.4028 0c2.83526,10.6157 1.11542,14.2917 14.2917,14.2917z"/>
  <path class="fil0" d="M538.309 462.092c40.0947,10.6927 23.8085,96.1955 -9.52779,114.328 7.25848,-40.0453 9.52779,-73.1233 9.52779,-114.328zm-509.731 19.0501c0,-1.30224 0.52749,-8.92337 4.7639,-14.2862 3.03307,-1.52752 5.84635,-2.03853 9.52779,0l12.984 109.723c-21.1546,-15.2038 -27.2756,-58.8261 -27.2756,-95.4373zm433.509 -147.675l4.7639 4.7639c1.71434,20.6051 16.6104,47.6884 22.0337,78.0026 3.04406,16.9841 11.3136,82.761 11.3136,93.4921 0,120.636 -85.2556,238.195 -204.842,238.195l-19.0556 0c-61.9526,0 -98.1956,-38.265 -129.889,-70.1947 -23.259,-23.4348 -60.6669,-103.168 -60.6669,-144.181l-1.42862 -24.0008 15.7203 -128.438c6.29691,-9.40691 19.0556,-37.6057 19.0556,-52.4028l0 -14.2917 14.2917 0 0 -19.0556c15.2533,7.05518 92.8053,-33.3473 133.389,-33.3473l9.71461 -1.90116 113.707 12.396 33.7813 13.3246 4.7639 4.7639c27.0998,0 24.2865,-22.1821 19.2864,19.0995l18.8248 -0.0439575 -4.7639 23.8195zm-281.064 -190.556c-105.284,55.7107 -147.681,130.169 -147.681,290.598 -22.0941,11.6927 -33.3418,22.9733 -33.3418,57.1612l0 9.52779c0,49.2764 29.7428,110.861 71.4529,114.333 34.5671,68.5133 105.449,153.181 221.343,155.505 104.432,-5.23644 183.792,-65.0736 221.694,-155.505 58.6283,-18.7149 71.3211,-58.2767 71.3211,-122.372 0,-32.2154 -18.0061,-49.0676 -37.9738,-58.6503 0,-157.698 -23.6107,-235.03 -128.625,-290.598 0,-76.4201 -41.7871,-142.911 -114.328,-142.911 -39.8805,0 -74.1893,17.5281 -94.2834,39.1057 -25.0997,26.9569 -29.5779,51.1501 -29.5779,103.806z"/>
 </g>
</svg>
