<?xml version="1.0" encoding="UTF-8"?>
<!DOCTYPE svg PUBLIC "-//W3C//DTD SVG 1.1//EN" "http://www.w3.org/Graphics/SVG/1.1/DTD/svg11.dtd">
<!-- Creator: CorelDRAW -->
<svg xmlns="http://www.w3.org/2000/svg" xml:space="preserve" width="13.3804mm" height="15.6058mm" style="shape-rendering:geometricPrecision; text-rendering:geometricPrecision; image-rendering:optimizeQuality; fill-rule:evenodd; clip-rule:evenodd"
viewBox="0 0 884.953 1032.14"
 xmlns:xlink="http://www.w3.org/1999/xlink">
 <defs>
  <style type="text/css">
   <![CDATA[
    .fil0 {fill:#b0b0b0}
   ]]>
  </style>
 </defs>
 <g id="Слой_x0020_1">
  <metadata id="CorelCorpID_0Corel-Layer"/>
  <path class="fil0" d="M524.369 464.812l0 22.9367c0,13.4194 9.51065,22.9367 22.9367,22.9367l17.2025 0c13.4194,0 22.9367,-9.51726 22.9367,-22.9367l0 -22.9367c0,-13.426 -9.51726,-22.9367 -22.9367,-22.9367l-17.2025 0c-13.426,0 -22.9367,9.51065 -22.9367,22.9367z"/>
  <path class="fil0" d="M275.326 464.812l0 22.9367c0,13.4194 9.51065,22.9367 22.9367,22.9367l17.2025 0c13.4194,0 22.9367,-9.51726 22.9367,-22.9367l0 -22.9367c0,-13.426 -9.51726,-22.9367 -22.9367,-22.9367l-17.2025 0c-13.426,0 -22.9367,9.51065 -22.9367,22.9367z"/>
  <path class="fil0" d="M517.438 366.279c-9.38499,0 -17.2025,3.43256 -17.2025,11.4683 0,8.03577 7.81752,11.4683 17.2025,11.4683l74.5442 0c9.38499,0 17.2025,-3.43256 17.2025,-11.4683 0,-8.03577 -7.81752,-11.4683 -17.2025,-11.4683l-74.5442 0z"/>
  <path class="fil0" d="M270.908 366.279c-9.38499,0 -17.2025,3.43256 -17.2025,11.4683 0,8.03577 7.81752,11.4683 17.2025,11.4683l74.5442 0c9.38499,0 17.2025,-3.43256 17.2025,-11.4683 0,-8.03577 -7.81752,-11.4683 -17.2025,-11.4683l-74.5442 0z"/>
  <path class="fil0" d="M341.517 656.036c-2.57938,-1.60054 -9.94716,-7.48021 -16.012,-0.892864 -7.59926,7.19582 -0.548946,14.0345 3.68389,17.5729 25.5756,21.7263 62.2491,34.405 97.4809,34.405 32.5994,0 122.977,-28.8693 98.8631,-52.9832 -6.73947,-6.0384 -31.6735,13.3202 -51.1578,20.4036 -51.8192,18.8427 -91.0059,12.8969 -132.858,-18.5054z"/>
  <path class="fil0" d="M417.126 619.264l28.6708 0c15.8665,0 13.7898,-4.42463 17.2025,-17.2025l-63.0758 0c3.41272,12.7779 1.3426,17.2025 17.2025,17.2025z"/>
  <path class="fil0" d="M345.948 321.113c41.7199,-27.9367 86.0125,-18.2409 86.0125,-91.7467 20.6549,29.7224 10.8995,59.7888 49.5572,76.5878 18.5782,8.07545 81.9384,13.016 105.464,14.9604 44.9673,3.71034 57.9766,19.0345 74.4979,51.6472 4.92067,9.70245 28.5121,80.2519 28.5121,91.8988l0 22.9367c0,156.357 -99.0616,303.904 -252.297,303.904l-17.2025 0c-164.743,0 -240.828,-196.503 -240.828,-372.714l0 -11.4683c0,-66.1909 98.1687,-86.0059 166.284,-86.0059zm-269.499 235.094l-5.73417 74.5442c0,182.257 -28.5981,257.336 -70.7148,395.049 61.8258,-13.3599 146.238,-34.5902 205.061,-54.2795 63.3801,-21.2105 140.887,-30.3904 140.887,-111.41l3.4987 -50.5096c58.8033,11.594 109.915,16.1443 179.294,0.568787l0.701063 67.1433c0,56.2769 107.395,83.949 157.197,100.841 27.6391,9.37176 178.95,53.552 198.315,53.9819 -11.3228,-42.4143 -40.7013,-75.5363 -52.1895,-131.304 -11.0318,-53.5454 -14.5438,-93.8102 -23.5782,-154.174 -15.1985,-101.568 -7.01725,-229.605 -22.9301,-332.582 -22.52,-145.709 -7.09661,-170.815 -80.1593,-281.087 -34.7092,-52.3813 -143.619,-132.99 -222.528,-132.99l-68.81 0c-44.9408,0 -143.295,32.6259 -174.181,49.4514 -48.1816,26.2502 -73.1817,75.1593 -103.387,120.239 -53.0427,79.1738 -60.7412,255.643 -60.7412,386.517z"/>
 </g>
</svg>
