<?xml version="1.0" encoding="UTF-8"?>
<!DOCTYPE svg PUBLIC "-//W3C//DTD SVG 1.1//EN" "http://www.w3.org/Graphics/SVG/1.1/DTD/svg11.dtd">
<!-- Creator: CorelDRAW -->
<svg xmlns="http://www.w3.org/2000/svg" xml:space="preserve" width="12.055mm" height="12.9393mm" style="shape-rendering:geometricPrecision; text-rendering:geometricPrecision; image-rendering:optimizeQuality; fill-rule:evenodd; clip-rule:evenodd"
viewBox="0 0 718.046 770.719"
 xmlns:xlink="http://www.w3.org/1999/xlink">
 <defs>
  <style type="text/css">
   <![CDATA[
    .fil0 {fill:#b0b0b0}
   ]]>
  </style>
 </defs>
 <g id="Слой_x0020_1">
  <metadata id="CorelCorpID_0Corel-Layer"/>
  <path class="fil0" d="M465.613 453.194l0 20.6569c0,12.0856 8.56533,20.6569 20.6569,20.6569l15.4926 0c12.0856,0 20.6569,-8.57128 20.6569,-20.6569l0 -20.6569c0,-12.0915 -8.57128,-20.6569 -20.6569,-20.6569l-15.4926 0c-12.0915,0 -20.6569,8.56533 -20.6569,20.6569z"/>
  <path class="fil0" d="M241.324 453.194l0 20.6569c0,12.0856 8.56533,20.6569 20.6569,20.6569l15.4926 0c12.0856,0 20.6569,-8.57128 20.6569,-20.6569l0 -20.6569c0,-12.0915 -8.57128,-20.6569 -20.6569,-20.6569l-15.4926 0c-12.0915,0 -20.6569,8.56533 -20.6569,20.6569z"/>
  <path class="fil0" d="M459.371 364.455c-8.45215,0 -15.4926,3.09138 -15.4926,10.3284 0,7.23705 7.04048,10.3284 15.4926,10.3284l67.1348 0c8.45215,0 15.4926,-3.09138 15.4926,-10.3284 0,-7.23705 -7.04048,-10.3284 -15.4926,-10.3284l-67.1348 0z"/>
  <path class="fil0" d="M237.345 364.455c-8.45215,0 -15.4926,3.09138 -15.4926,10.3284 0,7.23705 7.04048,10.3284 15.4926,10.3284l67.1348 0c8.45215,0 15.4926,-3.09138 15.4926,-10.3284 0,-7.23705 -7.04048,-10.3284 -15.4926,-10.3284l-67.1348 0z"/>
  <path class="fil0" d="M300.936 625.412c-2.323,-1.44145 -8.95845,-6.73671 -14.4205,-0.804116 -6.84392,6.48058 -0.494383,12.6395 3.31772,15.8262 23.0335,19.5668 56.0618,30.9853 87.7916,30.9853 29.3592,0 110.754,-25.9998 89.0365,-47.7168 -6.06959,-5.43821 -28.5253,11.9962 -46.0729,18.3755 -46.6685,16.9698 -81.9603,11.615 -119.652,-16.6661z"/>
  <path class="fil0" d="M369.03 592.294l25.8211 0c14.2894,0 12.4191,-3.98484 15.4926,-15.4926l-56.8063 0c3.07351,11.5078 1.20915,15.4926 15.4926,15.4926z"/>
  <path class="fil0" d="M258.205 118.771c0,9.977 9.20862,20.6569 15.4926,20.6569 6.28402,0 15.4926,-10.6799 15.4926,-20.6569 0,-11.895 -3.59172,-15.4926 -15.4926,-15.4926 -11.9009,0 -15.4926,3.59768 -15.4926,15.4926z"/>
  <path class="fil0" d="M320.175 118.771c0,9.977 9.20862,20.6569 15.4926,20.6569 9.97104,0 20.6569,-9.20266 20.6569,-15.4926 0,-9.97104 -9.20862,-20.6569 -15.4926,-20.6569 -9.977,0 -20.6569,9.20862 -20.6569,15.4926z"/>
  <path class="fil0" d="M433.782 118.771l25.8211 5.16421 -0.726683 16.8507 -25.0944 -11.6865 0.297821 14.3669 20.359 6.28998c4.71748,-3.1569 15.4926,-8.4045 15.4926,-15.4926 0,-16.3384 -12.6991,-17.5953 -25.8211,-20.6569l0.268039 -11.3768 25.553 6.21254c-3.07351,-11.5078 -1.2032,-15.4926 -15.4926,-15.4926l-5.16421 0c-16.8924,0 -15.4926,9.26223 -15.4926,25.8211z"/>
  <path class="fil0" d="M160.305 99.2756l5.69433 30.4492 -11.0789 14.8672 25.8211 0c-10.0127,-20.8653 -13.2888,-38.9133 15.4926,-41.3137l0 25.8211c0,19.7455 1.58441,1.88223 -5.16421,15.4926l20.6569 0c-3.53811,-6.29593 -5.16421,-5.5216 -5.16421,-15.4926l0 -25.8211 20.6569 0 0 25.8211c0,19.7455 1.58441,1.88223 -5.16421,15.4926l18.6078 0.238257 -3.11521 -36.3877c-3.1569,-4.71153 -8.4045,-15.4926 -15.4926,-15.4926 -17.1366,0 -10.7811,10.3284 -20.6569,10.3284 -3.08542,0 -10.7156,-7.12387 -15.2306,-8.94654l-25.8628 4.94383z"/>
  <path class="fil0" d="M376.982 113.607l0 10.3284c0,12.0915 8.56533,20.6569 20.6569,20.6569l10.3284 0c14.2835,0 12.4191,-3.98484 15.4867,-15.4926 -17.7859,4.75322 -13.664,10.3284 -20.6509,10.3284 -14.2894,0 -12.4251,-3.98484 -15.4926,-15.4926l41.3077 0c-1.38189,-16.6184 -9.2384,-30.9853 -25.8151,-30.9853l-5.16421 0c-12.0915,0 -20.6569,8.57128 -20.6569,20.6569z"/>
  <path class="fil0" d="M289.19 118.771c0,9.977 -9.20862,20.6569 -15.4926,20.6569 -6.28402,0 -15.4926,-10.6799 -15.4926,-20.6569 0,-11.895 3.59172,-15.4926 15.4926,-15.4926 11.9009,0 15.4926,3.59768 15.4926,15.4926zm-41.3137 -5.16421l0 10.3284c0,14.5873 11.8473,19.9242 20.7402,26.2738l36.0661 -5.6169c-3.53811,-6.29593 -5.16421,-5.5216 -5.16421,-15.4926l0 -15.4926c0,-19.7396 -1.58441,-1.87627 5.16421,-15.4926 -19.7217,-0.434818 -56.8063,-14.5873 -56.8063,15.4926z"/>
  <path class="fil0" d="M345.996 144.592c0.720726,-0.720726 2.24557,2.24557 2.16814,2.17409 -0.0774334,-0.0774334 -2.89482,-1.44741 -2.16814,-2.17409zm10.3284 -20.6569c0,6.28998 -10.6858,15.4926 -20.6569,15.4926 -6.28402,0 -15.4926,-10.6799 -15.4926,-20.6569 0,-6.28402 10.6799,-15.4926 20.6569,-15.4926 6.28402,0 15.4926,10.6858 15.4926,20.6569zm-46.4779 -5.16421c0,25.0706 21.4848,25.964 35.8993,37.3944l-30.7351 -6.4091c5.37864,8.04116 6.84392,15.4926 20.6569,15.4926l5.16421 0c14.5813,0 19.9242,-11.8473 24.5166,-20.7819l6.17085 -52.6428 -20.359 6.28998c-6.30189,-3.53811 -5.52755,-5.16421 -15.4926,-5.16421 -13.4198,0 -25.8211,18.4351 -25.8211,25.8211z"/>
  <path class="fil0" d="M645.515 506.081c0,-16.94 10.4178,-19.3703 25.8211,-20.6569l0 20.6569c0,9.51835 -22.2413,50.3972 -30.9853,56.8063l6.30784 -46.3052 -1.14363 -10.5012zm-222.061 242.718l-46.472 0c-131.422,0 -216.897,-129.189 -216.897,-263.375l0 -30.9853c0,-84.4918 71.1375,-114.393 137.307,-136.39 26.655,-8.86315 63.0129,-35.3156 80.8881,-53.3814 155.707,-157.357 35.6432,81.0609 236.249,127.807l0 72.293c0,123.661 -76.9509,284.032 -191.076,284.032zm-211.727 -707.485l-43.0351 33.7729 -13.7712 7.54082 -10.3284 10.3225c-8.91675,6.92731 -3.16881,0.994721 -15.4926,10.3284l-5.16421 5.16421 -5.16421 5.16421 -5.16421 5.16421 -5.16421 5.16421 -5.16421 5.16421 -5.16421 5.16421 -5.16421 5.16421 -5.16421 5.16421c-19.7634,29.52 -57.2948,71.3996 -61.9229,113.654 -4.57453,41.7902 -25.8628,113.035 -25.8628,149.72l0 67.1288c0,86.1119 59.1472,192.261 110.414,230.418 48.1636,35.8517 71.8284,24.0282 130.416,39.9973 46.4898,6.6831 91.6812,22.8488 156.564,25.0586 100.902,3.78828 195.835,-64.9905 218.511,-87.5295 47.9432,-47.6454 86.4157,-133.4 85.6652,-229.221l10.3701 -14.9327 5.87303 -82.5619c3.86571,-44.3217 -37.6207,-165.35 -53.2444,-194.638 -22.1102,-41.4388 -83.6698,-103.797 -132.667,-115.209l-10.3284 -5.16421 -87.7916 -30.9853 -36.1435 -5.16421c-16.9937,-3.1986 -22.9322,-3.94315 -36.1495,-5.16421 -13.3483,0 -117.526,9.07758 -149.762,41.3137z"/>
 </g>
</svg>
