<?xml version="1.0" encoding="UTF-8"?>
<!DOCTYPE svg PUBLIC "-//W3C//DTD SVG 1.1//EN" "http://www.w3.org/Graphics/SVG/1.1/DTD/svg11.dtd">
<!-- Creator: CorelDRAW -->
<svg xmlns="http://www.w3.org/2000/svg" xml:space="preserve" width="11.1538mm" height="13.6116mm" style="shape-rendering:geometricPrecision; text-rendering:geometricPrecision; image-rendering:optimizeQuality; fill-rule:evenodd; clip-rule:evenodd"
viewBox="0 0 621.905 758.945"
 xmlns:xlink="http://www.w3.org/1999/xlink">
 <defs>
  <style type="text/css">
   <![CDATA[
    .fil0 {fill:#b0b0b0}
   ]]>
  </style>
 </defs>
 <g id="Слой_x0020_1">
  <metadata id="CorelCorpID_0Corel-Layer"/>
  <path class="fil0" d="M392.286 441.023l0 19.3366c0,11.3131 8.01789,19.3366 19.3366,19.3366l14.5025 0c11.3131,0 19.3366,-8.02347 19.3366,-19.3366l0 -19.3366c0,-11.3187 -8.02347,-19.3366 -19.3366,-19.3366l-14.5025 0c-11.3187,0 -19.3366,8.01789 -19.3366,19.3366z"/>
  <path class="fil0" d="M182.332 441.023l0 19.3366c0,11.3131 8.01789,19.3366 19.3366,19.3366l14.5025 0c11.3131,0 19.3366,-8.02347 19.3366,-19.3366l0 -19.3366c0,-11.3187 -8.02347,-19.3366 -19.3366,-19.3366l-14.5025 0c-11.3187,0 -19.3366,8.01789 -19.3366,19.3366z"/>
  <path class="fil0" d="M386.442 357.956c-7.91195,0 -14.5025,2.8938 -14.5025,9.6683 0,6.7745 6.59051,9.6683 14.5025,9.6683l62.844 0c7.91195,0 14.5025,-2.8938 14.5025,-9.6683 0,-6.7745 -6.59051,-9.6683 -14.5025,-9.6683l-62.844 0z"/>
  <path class="fil0" d="M178.607 357.956c-7.91195,0 -14.5025,2.8938 -14.5025,9.6683 0,6.7745 6.59051,9.6683 14.5025,9.6683l62.844 0c7.91195,0 14.5025,-2.8938 14.5025,-9.6683 0,-6.7745 -6.59051,-9.6683 -14.5025,-9.6683l-62.844 0z"/>
  <path class="fil0" d="M238.134 602.234c-2.17453,-1.34933 -8.38589,-6.30614 -13.4988,-0.752723 -6.40651,6.06639 -0.462785,11.8317 3.10568,14.8147 21.5613,18.3163 52.4787,29.0049 82.1806,29.0049 27.4827,0 103.675,-24.338 83.3459,-44.6671 -5.68166,-5.09064 -26.7021,11.2295 -43.1282,17.2011 -43.6858,15.8852 -76.722,10.8727 -112.005,-15.6009z"/>
  <path class="fil0" d="M301.875 571.233l24.1708 0c13.3762,0 11.6254,-3.73016 14.5025,-14.5025l-53.1757 0c2.87707,10.7723 1.13187,14.5025 14.5025,14.5025z"/>
  <path class="fil0" d="M568.729 410.892c14.4188,1.20436 24.1708,3.47925 24.1708,19.3366 0,28.0013 -0.223029,92.5459 -33.8391,101.517l9.6683 -120.854zm-536.585 33.8391c0,-20.541 7.81159,-29.4677 24.1708,-33.8391l11.2072 120.653c-20.4741,-12.4785 -35.378,-46.3231 -35.378,-77.1457l0 -9.6683zm227.205 314.214l58.0098 0 0 -28.9993c-180.14,0 -227.205,-154.107 -227.205,-333.551l0 -4.83415c0,-122.666 49.5626,-188.532 174.029,-188.532l58.0098 0c72.0551,0 119.649,8.80964 165.421,37.6083 48.5813,30.5773 42.4424,84.4945 42.4424,160.592l0 82.175c0,107.026 -59.7718,254.883 -212.697,246.542 0,14.5025 0,16.2086 0,28.9993l48.3359 0c71.8711,0 135.061,-67.4774 159.611,-115.93 27.3601,-53.9897 3.0778,-43.2788 51.9267,-83.4296 21.316,-17.5189 44.6727,-61.924 44.6727,-95.5177l0 -9.6683c0,-73.4156 -43.5074,-65.3642 -43.5074,-77.3409 0,-25.916 9.6683,-33.3094 9.6683,-62.844l0 -62.844c0,-69.8192 -52.1776,-169.195 -116.02,-169.195l-19.3366 0c-3.22277,-38.7234 -38.1993,-56.0081 -62.844,-72.5067 -30.8895,0 -36.783,-9.6683 -67.6726,-9.6683l-38.6732 0c-118.813,0 -241.708,112.434 -241.708,227.2l-1.88459 19.5039 11.5529 135.189c-89.7357,7.46032 -49.479,182.404 24.1708,188.526 6.32845,76.0473 100.586,186.675 183.698,188.526z"/>
 </g>
</svg>
