<?xml version="1.0" encoding="UTF-8"?>
<!DOCTYPE svg PUBLIC "-//W3C//DTD SVG 1.1//EN" "http://www.w3.org/Graphics/SVG/1.1/DTD/svg11.dtd">
<!-- Creator: CorelDRAW -->
<svg xmlns="http://www.w3.org/2000/svg" xml:space="preserve" width="11.0942mm" height="13.595mm" style="shape-rendering:geometricPrecision; text-rendering:geometricPrecision; image-rendering:optimizeQuality; fill-rule:evenodd; clip-rule:evenodd"
viewBox="0 0 634.512 777.541"
 xmlns:xlink="http://www.w3.org/1999/xlink">
 <defs>
  <style type="text/css">
   <![CDATA[
    .fil0 {fill:#b0b0b0}
   ]]>
  </style>
 </defs>
 <g id="Слой_x0020_1">
  <metadata id="CorelCorpID_0Corel-Layer"/>
  <path class="fil0" d="M395.96 467.257l0 19.8346c0,11.6045 8.22437,19.8346 19.8346,19.8346l14.8759 0c11.6045,0 19.8346,-8.23009 19.8346,-19.8346l0 -19.8346c0,-11.6102 -8.23009,-19.8346 -19.8346,-19.8346l-14.8759 0c-11.6102,0 -19.8346,8.22437 -19.8346,19.8346z"/>
  <path class="fil0" d="M180.599 467.257l0 19.8346c0,11.6045 8.22437,19.8346 19.8346,19.8346l14.8759 0c11.6045,0 19.8346,-8.23009 19.8346,-19.8346l0 -19.8346c0,-11.6102 -8.23009,-19.8346 -19.8346,-19.8346l-14.8759 0c-11.6102,0 -19.8346,8.22437 -19.8346,19.8346z"/>
  <path class="fil0" d="M389.966 382.05c-8.11571,0 -14.8759,2.96832 -14.8759,9.91729 0,6.94897 6.76023,9.91729 14.8759,9.91729l64.4624 0c8.11571,0 14.8759,-2.96832 14.8759,-9.91729 0,-6.94897 -6.76023,-9.91729 -14.8759,-9.91729l-64.4624 0z"/>
  <path class="fil0" d="M176.778 382.05c-8.11571,0 -14.8759,2.96832 -14.8759,9.91729 0,6.94897 6.76023,9.91729 14.8759,9.91729l64.4624 0c8.11571,0 14.8759,-2.96832 14.8759,-9.91729 0,-6.94897 -6.76023,-9.91729 -14.8759,-9.91729l-64.4624 0z"/>
  <path class="fil0" d="M237.838 632.619c-2.23053,-1.38407 -8.60185,-6.46854 -13.8465,-0.772107 -6.57149,6.22261 -0.474703,12.1364 3.18566,15.1962 22.1166,18.7879 53.8302,29.7519 84.297,29.7519 28.1905,0 106.345,-24.9648 85.4923,-45.8174 -5.82798,-5.22173 -27.3898,11.5187 -44.2389,17.6441 -44.8108,16.2943 -78.6978,11.1527 -114.89,-16.0026z"/>
  <path class="fil0" d="M303.221 600.82l24.7932 0c13.7206,0 11.9248,-3.82622 14.8759,-14.8759l-54.5451 0c2.95117,11.0497 1.16102,14.8759 14.8759,14.8759z"/>
  <path class="fil0" d="M589.884 535.522l-4.95865 4.95865 -12.9542 21.3159 3.03696 -65.9437 4.95865 -54.5451c11.0898,-13.2688 24.7932,2.75099 24.7932,14.8759l0 34.7105c0,20.8812 -5.27321,33.5895 -14.8759,44.6278zm-560.315 -79.3383c0,-16.2657 10.0031,-18.5992 24.7932,-19.8346l0 54.5451 5.73647 64.3823c-30.3295,-20.5724 -30.5297,-66.7902 -30.5297,-99.0928zm150.544 303.993l18.0502 -26.3088c-40.6872,-27.2468 -59.0634,-61.9059 -79.4241,-109.004 -10.4492,-24.1641 -32.2798,-123.892 -30.5869,-158.831l8.02992 -92.6986 75.901 -110.703 6.24549 -39.4976c18.0559,4.82138 72.0519,123.966 223.133,123.966 -18.4791,-27.6014 -95.0092,-64.062 -99.1729,-114.049 19.8231,13.2745 38.6626,45.806 71.3999,67.4422 30.7928,20.3436 57.7308,37.41 97.194,46.6067 -20.2349,-30.2209 -44.6278,-43.9644 -44.6278,-94.2143 20.3093,23.3634 20.7325,37.8104 50.8104,68.1914 15.9169,16.077 68.1971,43.5583 68.1971,55.7748l0 54.5394c0,129.571 -28.4364,279.32 -123.257,316.747 -64.7598,4.1751 -173.198,4.91861 -223.843,-14.2697l-18.0502 26.3088c7.3722,3.36868 45.7431,15.0475 104.944,17.3638 28.2477,-1.26397 78.8522,-0.102948 107.106,-1.36692l34.0928 -4.94149c59.0405,-17.7871 95.5183,-65.1373 117.109,-128.519 27.1381,-79.67 16.7519,-29.7976 55.4602,-68.5059 16.1342,-16.1285 35.6885,-60.5218 35.6885,-93.2305l0 -9.91729c0,-35.4083 -16.4316,-61.7 -49.5865,-64.4567l0 -19.8346c0,-22.74 14.8759,-28.1219 14.8759,-59.5037l0 -44.6278c0,-93.4993 -27.8645,-144.407 -75.6093,-192.152 -30.8557,-30.8557 -128.862,-90.4853 -182.235,-90.4853l-64.4624 0c-118.333,0 -131.521,72.5381 -174.13,88.6722 -57.0502,21.5904 -88.6722,100.58 -88.6722,179.089l0 49.5865c0,29.2943 13.3031,61.2253 19.8346,89.2556 -9.44259,14.0981 -35.9516,14.6929 -34.4703,84.9661 0.0114386,41.5394 32.0796,78.9666 60.1958,102.524 6.57149,2.99692 41.5451,93.1791 119.86,166.083z"/>
 </g>
</svg>
